#N canvas 460 779 450 300 10;
#N canvas 998 564 450 300 brkp 0;
#X obj 60 246 outlet;
#X obj 62 82 tof/breakpoints;
#X obj 172 16 bng 15 250 50 0 empty empty empty 17 7 0 10 -262144 -1
-1;
#X obj 60 12 inlet;
#X msg 259 246 1;
#X obj 259 277 outlet;
#X msg 212 246 0;
#X msg 171 40 status;
#X obj 60 40 t l b;
#X connect 1 0 0 0;
#X connect 1 2 4 0;
#X connect 2 0 1 0;
#X connect 3 0 8 0;
#X connect 4 0 5 0;
#X connect 6 0 5 0;
#X connect 7 0 1 0;
#X connect 8 0 1 0;
#X connect 8 1 6 0;
#X coords 0 -1 1 1 206 146 1 60 80;
#X restore 103 73 pd brkp;
#X obj 103 232 print;
#X obj 103 41 bng 15 250 50 0 empty empty empty 17 7 0 10 -262144 -1
-1;
#X text 122 7 breakpoints in a GOP test;
#X obj 302 232 tgl 15 0 empty empty empty 17 7 0 10 -262144 -1 -1 0
1;
#X msg 126 41 0 0.5 1 0.5 0;
#X text 319 230 changed/!tested;
#X connect 0 0 1 0;
#X connect 0 1 4 0;
#X connect 2 0 0 0;
#X connect 5 0 0 0;
