#N canvas 690 435 450 350 10;
#X text 16 16 KEYWORDS signal message GUI;
#X text 16 32 LICENSE SIBSD (with bits GPL);
#X text 16 48 DESCRIPTION a collection of objects and abstractions
covering a wide range in functionality.;
#X text 16 77 LIBRARY tof;
#X text 16 94 VERSION 0.2.3;
#X text 16 110 AUTHOR Thomas Ouellet Fredericks;
#X text 16 158 WEBSITE https://github.com/electrickery/pd-tof;
#X text 16 174 HELP_PATCH_AUTHORS Thomas Ouellet Fredericks.;
#X text 16 126 MAINTAINER Fred Jan Kraan <fjkraan@xs4all.nl>;
#X text 16 142 RELEASE_DATE 2020-09-12;
