#N canvas 1073 196 838 577 10;
#X obj 578 166 table \$0x 100;
#X obj 578 209 table \$0y 100;
#X obj 186 308 delay;
#X obj 186 230 random 2000;
#X obj 101 163 t b b b;
#X obj 264 230 t b b;
#X msg 257 258 stop;
#X obj 578 187 table \$0xt 100;
#X obj 578 230 table \$0yt 100;
#N canvas 1 79 834 623 restore 0;
#X obj 282 174 f;
#X obj 282 239 until;
#X obj 282 275 f;
#X obj 359 286 + 1;
#X msg 323 240 0;
#X obj 282 204 t f b;
#X obj 282 305 t f f f f;
#X obj 282 381 tabread \$0x;
#X obj 360 381 tabread \$0y;
#X obj 282 426 pack;
#X obj 255 19 inlet doit;
#X obj 349 41 r \$0count;
#X obj 255 69 t b b;
#X msg 255 116 0;
#X obj 282 464 iemguts/canvasobjectposition 2 0;
#X connect 0 0 5 0;
#X connect 1 0 2 0;
#X connect 2 0 6 0;
#X connect 3 0 2 1;
#X connect 4 0 2 1;
#X connect 5 0 1 0;
#X connect 5 1 4 0;
#X connect 6 0 7 0;
#X connect 6 1 8 0;
#X connect 6 2 14 1;
#X connect 6 3 3 0;
#X connect 7 0 9 0;
#X connect 8 0 9 1;
#X connect 9 0 14 0;
#X connect 10 0 12 0;
#X connect 11 0 0 1;
#X connect 12 0 13 0;
#X connect 12 1 0 0;
#X connect 13 0 0 1;
#X restore 318 374 pd restore;
#N canvas 1199 156 720 553 save 0;
#X obj 60 246 t b b f b;
#X obj 77 479 unpack f f;
#X obj 77 517 tabwrite \$0x;
#X obj 170 517 tabwrite \$0y;
#X obj 60 143 until;
#X msg 60 107 100;
#X obj 116 339 spigot;
#X msg 164 297 1;
#X obj 77 437 t l b;
#X msg 205 296 0;
#X obj 60 180 f;
#X obj 129 188 + 1;
#X obj 41 299 f;
#X obj 60 210 t f f f;
#X obj 187 354 t f f;
#X obj 187 467 t f f;
#X obj 41 63 t b b b;
#X msg 110 108 0;
#X obj 41 356 s \$0count;
#X obj 41 16 inlet;
#X obj 77 407 iemguts/canvasobjectposition 2 0;
#X connect 0 0 6 0;
#X connect 0 1 20 0;
#X connect 0 2 14 0;
#X connect 0 3 7 0;
#X connect 1 0 2 0;
#X connect 1 1 3 0;
#X connect 4 0 10 0;
#X connect 5 0 4 0;
#X connect 6 0 4 1;
#X connect 7 0 6 1;
#X connect 8 0 1 0;
#X connect 8 1 9 0;
#X connect 9 0 6 1;
#X connect 10 0 13 0;
#X connect 11 0 10 1;
#X connect 12 0 18 0;
#X connect 13 0 0 0;
#X connect 13 1 12 1;
#X connect 13 2 11 0;
#X connect 14 0 15 0;
#X connect 14 1 20 1;
#X connect 15 0 2 1;
#X connect 15 1 3 1;
#X connect 16 0 12 0;
#X connect 16 1 5 0;
#X connect 16 2 17 0;
#X connect 17 0 10 1;
#X connect 17 0 12 1;
#X connect 19 0 16 0;
#X connect 20 0 8 0;
#X restore 120 256 pd save;
#N canvas 155 337 912 684 animate 0;
#X obj 112 4 inlet;
#X obj 224 67 r \$0count;
#X obj 209 115 f;
#X obj 338 201 until;
#X obj 338 239 f;
#X obj 399 249 + 1;
#X msg 353 129 0;
#X obj 338 262 t f f;
#X obj 338 354 t b b f f;
#X obj 432 4 inlet stop;
#X obj 338 556 tabwrite \$0xt;
#X obj 460 556 tabwrite \$0yt;
#X obj 432 82 t b b;
#X obj 112 64 t f b b;
#X obj 571 3 inlet animation;
#X obj 593 556 tabwrite \$0xt;
#X obj 703 556 tabwrite \$0yt;
#X obj 593 356 t f b f f;
#N canvas 1138 217 779 663 smooth 0;
#X obj 231 380 tabread \$0xt;
#X obj 156 380 tabread \$0x;
#X obj 156 328 t f f;
#X obj 285 242 t f f;
#X obj 332 328 t f f;
#X obj 156 496 pack;
#X obj 332 380 tabread \$0y;
#X obj 407 380 tabread \$0yt;
#X obj 156 433 expr $f3*($f2-$f1)+$f1;
#X obj 332 433 expr $f3*($f2-$f1)+$f1;
#X obj 156 242 t f f f;
#X obj 156 154 unpack f f;
#X obj 156 77 inlet;
#X obj 156 541 s \$0pos;
#X obj 221 541 s \$0index;
#X connect 0 0 8 1;
#X connect 1 0 8 0;
#X connect 2 0 1 0;
#X connect 2 1 0 0;
#X connect 3 0 8 2;
#X connect 3 1 9 2;
#X connect 4 0 6 0;
#X connect 4 1 7 0;
#X connect 5 0 13 0;
#X connect 6 0 9 0;
#X connect 7 0 9 1;
#X connect 8 0 5 0;
#X connect 9 0 5 1;
#X connect 10 0 2 0;
#X connect 10 1 4 0;
#X connect 10 2 14 0;
#X connect 11 0 10 0;
#X connect 11 1 3 0;
#X connect 12 0 11 0;
#X restore 112 506 pd smooth;
#X obj 432 144 s \$0stop;
#X obj 422 210 unpack;
#X msg 614 138 1 1;
#X msg 593 392 0;
#N canvas 1138 217 779 663 accelerate 0;
#X obj 209 369 tabread \$0xt;
#X obj 132 369 tabread \$0x;
#X obj 132 304 t f f;
#X obj 273 225 t f f;
#X obj 132 496 pack;
#X obj 332 369 tabread \$0y;
#X obj 407 370 tabread \$0yt;
#X obj 132 77 inlet;
#X obj 332 304 t f f f;
#X obj 332 422 expr pow($f3 \, 2)*$f2+$f1;
#X obj 132 422 expr pow($f3 \, 2)*$f2+$f1;
#X obj 132 225 t f f f;
#X obj 132 148 unpack f f;
#X obj 132 553 s \$0pos;
#X obj 278 553 s \$0index;
#X connect 0 0 10 1;
#X connect 1 0 10 0;
#X connect 2 0 1 0;
#X connect 2 1 0 0;
#X connect 3 0 10 2;
#X connect 3 1 9 2;
#X connect 4 0 13 0;
#X connect 5 0 9 0;
#X connect 6 0 9 1;
#X connect 7 0 12 0;
#X connect 8 0 5 0;
#X connect 8 1 6 0;
#X connect 9 0 4 1;
#X connect 10 0 4 0;
#X connect 11 0 2 0;
#X connect 11 1 8 0;
#X connect 11 2 14 0;
#X connect 12 0 11 0;
#X connect 12 1 3 0;
#X restore 143 481 pd accelerate;
#X obj 703 392 random 500;
#X obj 703 448 + 300;
#N canvas 1061 287 856 573 steady 0;
#X obj 218 358 tabread \$0xt;
#X obj 142 358 tabread \$0x;
#X obj 142 286 t f f;
#X obj 235 220 t f f;
#X obj 310 286 t f f;
#X obj 142 482 pack;
#X obj 310 358 tabread \$0y;
#X obj 385 359 tabread \$0yt;
#X obj 142 87 inlet;
#X obj 142 411 expr $f3*$f2+$f1;
#X obj 310 411 expr $f3*$f2+$f1;
#X obj 142 158 unpack f f;
#X obj 142 220 t f f f;
#X obj 142 540 s \$0pos;
#X obj 266 540 s \$0index;
#X connect 0 0 9 1;
#X connect 1 0 9 0;
#X connect 2 0 1 0;
#X connect 2 1 0 0;
#X connect 3 0 9 2;
#X connect 3 1 10 2;
#X connect 4 0 6 0;
#X connect 4 1 7 0;
#X connect 5 0 13 0;
#X connect 6 0 10 0;
#X connect 7 0 10 1;
#X connect 8 0 11 0;
#X connect 9 0 5 0;
#X connect 10 0 5 1;
#X connect 11 0 12 0;
#X connect 11 1 3 0;
#X connect 12 0 2 0;
#X connect 12 1 4 0;
#X connect 12 2 14 0;
#X restore 175 457 pd steady;
#X msg 571 138 3 0;
#X obj 382 488 tabread \$0x;
#X obj 338 522 +;
#X obj 475 488 tabread \$0y;
#X obj 460 522 +;
#N canvas 0 50 604 527 timeline 0;
#X obj 168 284 f;
#X obj 261 295 + 1;
#X msg 222 243 0;
#X obj 161 206 r \$0count;
#X obj 151 228 f;
#X obj 153 256 until;
#X msg 248 63 stop;
#X obj 132 171 t b b f;
#X msg 132 66 0 \, 1 \$1;
#X obj 250 41 r \$0stop;
#X obj 139 28 inlet;
#X obj 152 459 outlet;
#X obj 170 310 t f f;
#X obj 181 407 pack f f;
#X obj 285 153 moses 0.5;
#X floatatom 346 213 5 0 0 0 - - -, f 5;
#X obj 337 175 expr 0.5-($f1-0.5);
#X obj 137 116 line 0 50;
#X connect 0 0 12 0;
#X connect 1 0 0 1;
#X connect 2 0 0 1;
#X connect 3 0 4 1;
#X connect 4 0 5 0;
#X connect 5 0 0 0;
#X connect 6 0 17 0;
#X connect 7 0 4 0;
#X connect 7 1 2 0;
#X connect 7 2 13 1;
#X connect 8 0 17 0;
#X connect 9 0 6 0;
#X connect 10 0 8 0;
#X connect 12 0 13 0;
#X connect 12 1 1 0;
#X connect 13 0 11 0;
#X connect 14 0 7 0;
#X connect 14 0 15 0;
#X connect 14 1 16 0;
#X connect 16 0 7 0;
#X connect 16 0 15 0;
#X connect 17 0 7 0;
#X restore 112 285 pd timeline;
#X obj 338 392 random 2000;
#X obj 338 430 - 1000;
#X obj 460 392 random 2000;
#X obj 460 430 - 1000;
#X obj 571 83 route bang fall;
#X floatatom 478 269 5 0 0 0 - - -, f 5;
#N canvas 569 409 450 300 demux123 0;
#X obj 41 9 inlet;
#X obj 148 9 inlet;
#X obj 41 259 outlet;
#X obj 99 259 outlet;
#X obj 157 259 outlet;
#X obj 41 226 spigot;
#X obj 99 226 spigot;
#X obj 157 226 spigot;
#X obj 148 35 t f b;
#X msg 175 61 0;
#X obj 175 84 t f f f;
#X msg 74 192 1;
#X msg 132 192 1;
#X msg 190 192 1;
#X text 38 281 replacement for [zexy/demux 1 2 3];
#X obj 148 149 route 1 2 3;
#X connect 0 0 5 0;
#X connect 0 0 6 0;
#X connect 0 0 7 0;
#X connect 1 0 8 0;
#X connect 5 0 2 0;
#X connect 6 0 3 0;
#X connect 7 0 4 0;
#X connect 8 0 15 0;
#X connect 8 1 9 0;
#X connect 9 0 10 0;
#X connect 10 0 5 1;
#X connect 10 1 6 1;
#X connect 10 2 7 1;
#X connect 11 0 5 1;
#X connect 12 0 6 1;
#X connect 13 0 7 1;
#X connect 15 0 11 0;
#X connect 15 1 12 0;
#X connect 15 2 13 0;
#X restore 112 354 pd demux123;
#N canvas 1 79 450 300 demux01 0;
#X obj 41 9 inlet;
#X obj 148 9 inlet;
#X obj 41 259 outlet;
#X obj 99 259 outlet;
#X obj 41 226 spigot;
#X obj 99 226 spigot;
#X obj 148 35 t f b;
#X msg 175 61 0;
#X msg 74 192 1;
#X msg 132 192 1;
#X obj 175 84 t f f;
#X obj 148 149 route 1 2;
#X text 38 281 replacement for [zexy/demux 1 2];
#X connect 0 0 4 0;
#X connect 0 0 5 0;
#X connect 1 0 6 0;
#X connect 4 0 2 0;
#X connect 5 0 3 0;
#X connect 6 0 11 0;
#X connect 6 1 7 0;
#X connect 7 0 10 0;
#X connect 8 0 4 1;
#X connect 9 0 5 1;
#X connect 10 0 4 1;
#X connect 10 1 5 1;
#X connect 11 0 8 0;
#X connect 11 1 9 0;
#X restore 338 310 pd demux01;
#X connect 0 0 13 0;
#X connect 1 0 2 1;
#X connect 2 0 3 0;
#X connect 3 0 4 0;
#X connect 4 0 7 0;
#X connect 5 0 4 1;
#X connect 6 0 4 1;
#X connect 7 0 40 0;
#X connect 7 1 5 0;
#X connect 8 0 33 0;
#X connect 8 1 35 0;
#X connect 8 2 10 1;
#X connect 8 2 28 0;
#X connect 8 3 11 1;
#X connect 8 3 30 0;
#X connect 9 0 12 0;
#X connect 12 0 19 0;
#X connect 13 0 32 0;
#X connect 13 1 2 0;
#X connect 13 2 6 0;
#X connect 14 0 37 0;
#X connect 17 0 22 0;
#X connect 17 1 24 0;
#X connect 17 2 15 1;
#X connect 17 3 16 1;
#X connect 20 0 39 1;
#X connect 20 0 38 0;
#X connect 20 1 40 1;
#X connect 21 0 20 0;
#X connect 22 0 15 0;
#X connect 24 0 25 0;
#X connect 25 0 16 0;
#X connect 27 0 20 0;
#X connect 28 0 29 1;
#X connect 29 0 10 0;
#X connect 30 0 31 1;
#X connect 31 0 11 0;
#X connect 32 0 39 0;
#X connect 33 0 34 0;
#X connect 34 0 29 0;
#X connect 35 0 36 0;
#X connect 36 0 31 0;
#X connect 37 0 27 0;
#X connect 37 1 21 0;
#X connect 39 0 18 0;
#X connect 39 1 23 0;
#X connect 39 2 26 0;
#X connect 40 0 8 0;
#X connect 40 1 17 0;
#X restore 101 399 pd animate;
#X obj 291 336 t b b;
#X obj 101 314 f;
#X obj 186 257 + 2000;
#X obj 101 27 inlet;
#X obj 482 376 iemguts/canvasobjectposition 1 0;
#X obj 482 334 r \$0pos;
#X obj 671 337 r \$0index;
#X obj 101 94 t b a;
#X obj 264 191 bng 15 250 50 0 empty empty empty 17 7 0 10 -262144
-1 -1;
#X text 285 191 stop animation;
#X connect 2 0 12 0;
#X connect 3 0 14 0;
#X connect 4 0 13 0;
#X connect 4 1 10 0;
#X connect 4 2 3 0;
#X connect 5 0 6 0;
#X connect 5 1 12 0;
#X connect 6 0 2 0;
#X connect 12 0 11 1;
#X connect 12 1 9 0;
#X connect 13 0 11 0;
#X connect 14 0 2 0;
#X connect 14 0 13 1;
#X connect 15 0 19 0;
#X connect 17 0 16 0;
#X connect 18 0 16 1;
#X connect 19 0 4 0;
#X connect 19 1 11 2;
#X connect 20 0 5 0;
