#N canvas 231 98 905 635 10;
#X obj 25 182 bng 15 250 50 0 empty empty empty 17 7 0 10 -262144 -1
-1;
#X msg 18 144 0 1125 0.671429 300 0.557143 700 0.571429 0 0.792857
375 1 100 0.0857143 1250 0.492857 1150 0;
#X obj 18 115 loadbang;
#X obj 737 240 r \$0s;
#X obj 682 240 bng 15 250 50 0 empty empty empty 17 7 0 10 -262144
-1 -1;
#X msg 683 287 dump;
#X obj 739 287 r \$0d;
#X obj 682 261 s \$0r;
#X obj 683 309 s \$0r;
#X msg 34 208 duration 5000;
#X obj 18 562 line;
#X msg 47 234 dump;
#X obj 117 563 print DUMP;
#X obj 737 260 print data;
#X obj 739 312 print dump;
#X obj 217 563 bng 15 250 50 0 empty empty Change 17 7 0 10 -262144
-1 -1;
#X obj 20 394 tof/breakpoints;
#X obj 541 240 tof/breakpoints 100 50 3000 \$0r \$0s \$0d;
#X obj 2 3 cnv 15 400 100 empty empty empty 20 12 0 14 -249661 -66577
0;
#X text 7 54 author: mrtoftrash@gmail.com;
#X text 7 3 description: A graphical breakpoint envelope generator
based on [envgen] by ggee.;
#X text 8 35 tags: ui timing;
#X text 46 182 Inlet 1 bang: deliver values for line or line~.;
#X text 501 425 Inlet 1 list: sets the point data (value0 delay1 value1
delay2 value2 etc...);
#X text 138 202 Inlet 1 duration: set the total duration in milliseconds
, f 51;
#X text 87 233 Inlet 1 dump: dump the current point data out the second
outlet;
#X text 64 316 Select a point with the mouse and press the backspace
key to delete it.;
#X text 65 297 Click and drag to change points;
#X obj 18 589 nbx 5 28 -1e+37 1e+37 0 0 empty empty empty 0 -8 0 22
-262144 -1 -1 0 256;
#X text 528 75 Argument 1: display width;
#X text 528 90 Argument 2: display height;
#X text 528 105 Argument 3: receive name;
#X text 528 120 Argument 4: send name;
#X text 528 135 Argument 5: dump receive name;
#X text 528 150 Argument 6: contents change by mouse receive name;
#X text 580 407 -- Inlets --;
#X text 611 55 -- Arguments --;
#X floatatom 57 269 5 0 600 0 - - -, f 5;
#X text 580 473 -- Outlets --;
#X text 503 530 Outlet 2: The point data when dumped.;
#X text 503 555 Outlet 3: Bangs when the contents was modified with
the mouse.;
#X text 97 268 Inlet 1 float: output the interpolated value at that
index.;
#X text 503 495 Outlet 1: The line or line~ data if [breakpoints] was
banged \, or the value at that index if a float was sent.;
#X text 698 345 -- See also --;
#X text 691 365 [tof/breakpoints~];
#X msg 161 342 0 0.5 1 0.5 0;
#N canvas 291 204 494 344 META 0;
#X text 12 175 HELP_PATCH_AUTHORS "pd meta" information added by Jonathan
Wilkes for Pd version 0.42.;
#X text 12 155 AUTHOR Thomas Ouellet Fredericks;
#X text 12 5 KEYWORDS signal GUI;
#X text 12 135 OUTLET_2 bang;
#X text 12 115 OUTLET_1 list;
#X text 12 75 INLET_0 bang list float dump;
#X text 12 95 OUTLET_0 list;
#X text 12 25 LICENSE S.I. BSD;
#X text 12 45 DESCRIPTION graphical breakpoint envelope generator based
on [ggee/envgen] by Guenter Geiger;
#X restore 833 598 pd META;
#X text 528 181 The breakpoints below was created with the following:
[breakpoints 100 50 3000 \$0r \$0s \$0d];
#X text 538 217 It can now be controlld remotely:;
#X obj 232 394 vsl 15 140 0 1 0 0 empty \$0-trace empty 0 -9 0 10 -262144
-1 -1 0 1;
#X obj 137 593 s \$0-trace;
#X text 7 74 version: 0.2.1 2016-10-30;
#X connect 0 0 16 0;
#X connect 1 0 16 0;
#X connect 2 0 1 0;
#X connect 3 0 13 0;
#X connect 4 0 7 0;
#X connect 5 0 8 0;
#X connect 6 0 14 0;
#X connect 9 0 16 0;
#X connect 10 0 28 0;
#X connect 10 0 50 0;
#X connect 11 0 16 0;
#X connect 16 0 10 0;
#X connect 16 1 12 0;
#X connect 16 2 15 0;
#X connect 37 0 16 0;
#X connect 45 0 16 0;
