#N canvas 1 79 460 465 10;
#X obj 29 310 tof/common~ patrick;
#X obj 251 313 tof/common~ patrick;
#X obj 28 246 sig~;
#X floatatom 28 221 5 0 0 0 - - -, f 5;
#X obj 250 251 sig~;
#X floatatom 250 224 5 0 0 0 - - -, f 5;
#X obj 2 3 cnv 15 400 100 empty empty empty 20 12 0 14 -249661 -66577
0;
#X text 7 59 author: mrtoftrash@gmail.com;
#X text 6 37 tags: mix~ control~;
#X text 7 80 version: 2009-10-22;
#X text 7 11 description: "many to many" nonlocal signal connections.
;
#X text 8 109 All common~ objects of the same name share the same output.
;
#X text 8 132 The output is the sum of all the inputs from the previous
dsp block.;
#X text 8 173 common~ only works for the default block size (64) and
delays the input by one block.;
#X obj 169 252 metro 1000;
#X obj 30 421 nbx 5 14 -1e+37 1e+37 0 0 empty empty empty 0 -8 0 10
-262144 -1 -1 0 256;
#X obj 251 416 nbx 5 14 -1e+37 1e+37 0 0 empty empty empty 0 -8 0 10
-262144 -1 -1 0 256;
#X obj 30 378 snapshot~;
#X obj 251 379 snapshot~;
#X obj 169 221 loadbang;
#N canvas 117 176 494 344 META 0;
#X text 12 125 HELP_PATCH_AUTHORS "pd meta" information added by Jonathan
Wilkes for Pd version 0.42.;
#X text 12 25 DESCRIPTION "many to many" nonlocal signal connections
;
#X text 12 5 KEYWORDS signal nonlocal;
#X text 12 65 INLET_0 signal;
#X text 12 85 OUTLET_0 signal;
#X text 12 105 AUTHOR Thomas Ouellet Fredericks;
#X text 12 45 LICENSE S.I. BSD;
#X restore 399 404 pd META;
#X connect 0 0 17 0;
#X connect 1 0 18 0;
#X connect 2 0 0 0;
#X connect 3 0 2 0;
#X connect 4 0 1 0;
#X connect 5 0 4 0;
#X connect 14 0 17 0;
#X connect 14 0 18 0;
#X connect 17 0 15 0;
#X connect 18 0 16 0;
#X connect 19 0 14 0;
