#N canvas 1 79 450 300 10;
#X obj 29 122 bng 15 250 50 0 empty empty empty 17 7 0 10 -262144 -1
-1;
#X obj 29 159 tof/folderpanel;
#X obj 29 195 print;
#X obj 2 2 cnv 15 400 100 empty empty empty 20 12 0 14 -249661 -66577
0;
#X text 10 51 author: mrtoftrash@gmail.com;
#X text 8 72 version: 2009-04-14 (initial release);
#X text 9 29 tags: initialization patch;
#X text 9 2 description: queries for a folder;
#X text 143 124 inlet 1 bang: opens the panel;
#X text 143 143 outlet 2 symbol: the folder selected;
#N canvas 218 180 494 344 META 0;
#X text 12 125 HELP_PATCH_AUTHORS "pd meta" information added by Jonathan
Wilkes for Pd version 0.42.;
#X text 12 105 AUTHOR Thomas Ouellet Fredericks;
#X text 12 45 DESCRIPTION query for a folder;
#X text 12 65 INLET_0 bang;
#X text 12 85 OUTLET_0 symbol;
#X text 12 5 KEYWORDS control filesystem GUI symbol_op;
#X text 12 25 LICENSE S.I. BSD;
#X restore 358 237 pd META;
#X connect 0 0 1 0;
#X connect 1 0 2 0;
