#N canvas 1 83 594 396 10;
#X obj 58 362 print;
#X msg 97 195 43;
#X obj 35 108 bng 15 250 50 0 empty empty empty 17 7 0 10 -262144 -1
-1;
#X msg 72 155 32;
#X obj 58 324 tof/from_ascii_code 13;
#X msg 63 133 54;
#X msg 119 239 13;
#X text 98 134 Floats and lists: enter ASCII codes;
#X text 57 107 Bang: output data;
#X msg 85 176 65;
#X text 149 234 Because of [form_ascii_code]'s creation argument \,
the number 13 acts like a bang;
#X msg 125 265 49 50 51 32 52 53 13;
#X msg 107 215 49 50 51 32 52 53;
#N canvas 244 153 494 344 META 0;
#X text 12 125 HELP_PATCH_AUTHORS "pd meta" information added by Jonathan
Wilkes for Pd version 0.42.;
#X text 12 105 AUTHOR Thomas Ouellet Fredericks;
#X text 12 25 DESCRIPTION convert ASCII codes into PD messages;
#X text 12 65 INLET_0 bang float list;
#X text 12 85 OUTLET_0 anything;
#X text 12 5 KEYWORDS control conversion anything_op;
#X text 12 45 LICENSE S.I. BSD;
#X restore 537 365 pd META;
#X text 218 324 Optional argument: output data once that ASCII code
is received, f 51;
#X obj 2 2 cnv 15 400 100 empty empty empty 20 12 0 14 -249661 -66577
0;
#X text 10 48 author: mrtoftrash@gmail.com;
#X text 10 6 description: Convert ASCII codes into PD messages;
#X text 9 26 tags: conversion text symbols;
#X text 8 69 version: 2010-05-12 (initial release \, 0.1);
#X connect 1 0 4 0;
#X connect 2 0 4 0;
#X connect 3 0 4 0;
#X connect 4 0 0 0;
#X connect 5 0 4 0;
#X connect 6 0 4 0;
#X connect 9 0 4 0;
#X connect 11 0 4 0;
#X connect 12 0 4 0;
