#N canvas 1 79 812 373 10;
#X obj 4 136 tgl 15 0 empty empty empty 17 7 0 10 -262144 -1 -1 0 1
;
#X text 483 190 dimen w h;
#X text 483 204 lighting 0/1;
#X text 483 217 border 0/1;
#X text 482 230 offest x y;
#X text 440 285 Gem window with a dimension of 640 by 480 pixels \,
with no border \, and with an offset of 200 by 200 pixels;
#X text 482 243 frame f;
#X text 440 139 ARGUMENTS;
#X text 439 157 You can set the following comma separated arguments:
;
#X obj 43 161 tgl 15 0 empty empty empty 17 7 0 10 -262144 -1 -1 0
1;
#X text 23 133 Float: 1: Create and render window \, 0: Destroy window.
;
#X text 67 158 Float: Mouse mode \; 0: Gem coordinates \, 1: Normalized.
;
#X obj 43 246 print mouse;
#X obj 4 209 gemwin+;
#X text 39 263 x_pos y_pos left_button middle_button right_button;
#X obj 4 356 square;
#X obj 439 264 gemwin+ dimen 640 480 \, border 0 \, offset 200 200
;
#X text 12 284 The left most outlet is a gemlist normalized to the
window's size (i.e. a square of size 1 fills the whole window);
#N canvas 209 138 494 344 META 0;
#X text 12 175 HELP_PATCH_AUTHORS "pd meta" information added by Jonathan
Wilkes for Pd version 0.42.;
#X text 12 155 AUTHOR Thomas Ouellet Fredericks;
#X text 12 25 DESCRIPTION a more user friendly Gem window manager with
mouse pointer information;
#X text 12 75 INLET_0 float;
#X text 12 95 INLET_1 float;
#X text 12 115 OUTLET_0 gemlist;
#X text 12 135 OUTLET_1 list;
#X text 12 5 KEYWORDS control abstraction user_input;
#X text 12 55 LICENSE S.I. BSD;
#X restore 743 336 pd META;
#X obj 2 2 cnv 15 400 100 empty empty empty 20 12 0 14 -249661 -66577
0;
#X text 10 60 author: mrtoftrash@gmail.com;
#X text 8 81 version: 2009-05-27 (initial release \, 0.1);
#X text 10 8 description: A more user friendly Gem window manager with
mouse pointer information.;
#X text 9 38 tags: Gem;
#X obj 4 330 scale 0.5;
#X connect 0 0 13 0;
#X connect 9 0 13 1;
#X connect 13 0 24 0;
#X connect 13 1 12 0;
#X connect 24 0 15 0;
