#N canvas 1 79 658 555 10;
#X obj 45 338 print;
#X obj 45 152 bng 15 250 50 0 empty empty empty 17 7 0 10 -262144 -1
-1;
#X text 314 111 Arguments:;
#X text 253 277 <- This [imagebang] was created with the following:
;
#X obj 285 341 bng 15 250 50 0 empty empty empty 17 7 0 10 -262144
-1 -1;
#X obj 285 362 s \$0pandar;
#X obj 365 333 r \$0pandas;
#X obj 366 361 bng 15 250 50 0 empty empty empty 17 7 0 10 -262144
-1 -1;
#X obj 42 411 bng 15 250 50 0 empty empty empty 17 7 0 10 -262144 -1
-1;
#X obj 42 502 print;
#X obj 192 416 bng 15 250 50 0 empty empty empty 17 7 0 10 -262144
-1 -1;
#X obj 192 389 r \$0homes;
#X obj 122 394 bng 15 250 50 0 empty empty empty 17 7 0 10 -262144
-1 -1;
#X obj 123 416 s \$0homer;
#X text 112 458 <- This [imagebang] was created with the following:
;
#X text 258 299 [tof/imagebang panda.gif pandb.gif \$0pandas \$0pandar]
;
#X text 118 480 [tof/imagebang homea.gif homeb.gif \$0homes \$0homer]
;
#X obj 45 177 tof/imagebang panda.gif pandb.gif \$0pandas \$0pandar
;
#X obj 42 435 tof/imagebang homea.gif homeb.gif \$0homes \$0homer;
#X text 351 130 1) image for the normal state (required);
#X text 350 147 2) image for the clicked state (required);
#N canvas 316 186 494 344 META 0;
#X text 12 159 HELP_PATCH_AUTHORS "pd meta" information added by Jonathan
Wilkes for Pd version 0.42.;
#X text 12 139 AUTHOR Thomas Ouellet Fredericks;
#X text 12 5 KEYWORDS control user_input GUI bang_op;
#X text 12 99 INLET_0 anything;
#X text 12 119 OUTLET_0 bang;
#X text 12 25 LICENSE S.I. BSD (except the parts from [moonlib/image]
which are GPL;
#X text 12 57 DESCRIPTION GUI bang with an image based on [ggee/image]
from Guenter Geiger and [moonlib/image] from Antoine Rousseau;
#X restore 596 504 pd META;
#X text 350 163 3) send name (optional);
#X text 351 179 4) receive name (optional);
#X obj 2 2 cnv 15 400 100 empty empty empty 20 12 0 14 -249661 -66577
0;
#X text 27 49 [imagebang] only works with gifs;
#X text 28 69 based on [image] by ggee and moonlib;
#X text 26 3 Description: a bang with an image;
#X text 27 17 Tags: ui;
#X text 27 31 Contact: mrtoftrash@gmail.com;
#N canvas 491 431 450 466 more_options 0;
#X obj 41 52 tof/imagebang;
#X obj 41 30 bng 15 250 50 0 empty empty empty 17 7 0 10 -262144 -1
-1;
#X obj 41 75 bng 15 250 50 0 empty empty empty 17 7 0 10 -262144 -1
-1;
#X text 62 44 This is the default image used if no GIFs are specified
\, or they cannot be found;
#X obj 41 229 tof/imagebang;
#X text 175 134 Sets the flash time to indefinitly;
#X text 175 155 Resets the flash time to the preset time;
#X text 176 185 Sets the flash time in ms;
#X obj 41 361 tof/imagebang;
#X obj 112 421 bng 15 250 50 0 empty empty empty 17 7 0 10 -262144
-1 -1;
#X obj 42 421 bng 15 250 50 0 empty empty empty 17 7 0 10 -262144 -1
-1;
#X msg 41 133 flashtime -1;
#X msg 50 155 flashtime 0;
#X msg 66 200 flashtime 1000;
#X msg 57 178 flashtime 250;
#X text 15 5 Some [bang] like extensions;
#X text 39 286 The send and receive messages change the send and receive
name, f 62;
#X msg 41 312 send ib-s-foo;
#X msg 48 334 send ib-s-bar;
#X obj 42 386 r ib-s-foo;
#X obj 112 386 r ib-s-bar;
#X obj 233 361 tof/imagebang;
#X msg 233 312 receive ib-r-foo;
#X msg 240 334 receive ib-r-bar;
#X obj 232 392 bng 15 250 50 0 empty empty empty 17 7 0 10 -262144
-1 -1;
#X obj 232 419 s ib-r-foo;
#X obj 302 419 s ib-r-bar;
#X obj 302 392 bng 15 250 50 0 empty empty empty 17 7 0 10 -262144
-1 -1;
#X connect 0 0 2 0;
#X connect 1 0 0 0;
#X connect 11 0 4 0;
#X connect 12 0 4 0;
#X connect 13 0 4 0;
#X connect 14 0 4 0;
#X connect 17 0 8 0;
#X connect 18 0 8 0;
#X connect 19 0 10 0;
#X connect 20 0 9 0;
#X connect 22 0 21 0;
#X connect 23 0 21 0;
#X connect 24 0 25 0;
#X connect 27 0 26 0;
#X restore 511 449 pd more_options;
#X connect 1 0 17 0;
#X connect 4 0 5 0;
#X connect 6 0 7 0;
#X connect 8 0 18 0;
#X connect 11 0 10 0;
#X connect 12 0 13 0;
#X connect 17 0 0 0;
#X connect 18 0 9 0;
