#N canvas 1 84 542 427 10;
#X obj 2 2 cnv 15 400 100 empty empty empty 20 12 0 14 -249661 -66577
0;
#X text 7 59 author: mrtoftrash@gmail.com;
#X text 7 39 tags: lists;
#X text 7 78 version: 2009-10-06 (added the second mode);
#X text 8 8 description: accumulates anything into a big list. Outputs
the list on a bang.;
#X obj 32 287 tof/list_accum;
#X msg 53 174 1 2 3 4 5 6;
#X obj 32 123 bng 15 250 50 0 empty empty empty 17 7 0 10 -262144 -1
-1;
#X obj 32 374 print;
#X floatatom 45 147 5 0 0 0 - - -, f 5;
#X msg 135 174 a b c d;
#X obj 113 222 bng 15 250 50 0 empty empty empty 17 7 0 10 -262144
-1 -1;
#X obj 113 348 bng 15 250 50 0 empty empty empty 17 7 0 10 -262144
-1 -1;
#X text 89 151 Inlet 1 \, anything: Accumulate atoms;
#X text 134 222 Inlet 2 \, bang: Clear accumulated atoms;
#X text 53 122 Inlet 1 \, bang: Output and clear accumulated atoms
;
#X text 133 346 Outlet 2 \, bang: Nothing accumulated (empty);
#X text 71 374 Outlet 1 \, list: Accumulated atoms;
#N canvas 304 223 494 344 META 0;
#X text 12 175 HELP_PATCH_AUTHORS "pd meta" information added by Jonathan
Wilkes for Pd version 0.42.;
#X text 12 155 AUTHOR Thomas Ouellet Fredericks;
#X text 12 5 KEYWORDS control list_op;
#X text 12 75 INLET_0 bang anything;
#X text 12 95 INLET_1 bang;
#X text 12 115 OUTLET_0 list;
#X text 12 135 OUTLET_1 bang;
#X text 12 45 DESCRIPTION accumulate anything into a list and output
the list on a bang;
#X text 12 25 LICENSE S.I. BSD;
#X restore 480 404 pd META;
#X connect 5 0 8 0;
#X connect 5 1 12 0;
#X connect 6 0 5 0;
#X connect 7 0 5 0;
#X connect 9 0 5 0;
#X connect 10 0 5 0;
#X connect 11 0 5 1;
