#N canvas 434 368 979 676 10;
#X obj 26 585 tof/menubutton 132 22 \$0s \$0r 1 green red orange purple
0 \, a \, b \, c \, d \, e \, f \, with\\\ spaces \, a \, b \, c \,
d \, e \, f \, more\ spaces;
#X msg 43 134 add a b c d e f;
#X msg 28 114 clear;
#X msg 118 227 saveitems \$1;
#X obj 118 200 tgl 15 0 empty empty empty 17 7 0 10 -262144 -1 -1 0
1;
#X floatatom 392 607 5 0 0 0 - - -;
#X text 71 113 Clear menu items;
#X text 157 133 Add menu items;
#X obj 242 587 r \$0s;
#X obj 392 636 send \$0r;
#X text 555 315 1: width;
#X text 555 329 2: height;
#X text 555 342 3: send name;
#X text 555 354 4: receive name;
#X text 139 198 Set the saving of the menu items in the patch. Off
by default.;
#X floatatom 169 357 5 0 0 0 - - -;
#X obj 26 621 unpack f s;
#X floatatom 26 644 5 0 0 0 - - -;
#X symbolatom 85 642 10 0 0 0 - - -;
#X floatatom 243 642 5 0 0 0 - - -;
#X symbolatom 300 640 10 0 0 0 - - -;
#X obj 243 611 unpack f s;
#X msg 170 378 set b;
#X msg 170 402 set 2;
#X text 126 260 values can be tk colors(red \, blue \, etc) or html
colors (#ffffff);
#X msg 145 334 colors default;
#X text 125 244 colors: background foreground highlight contour;
#X msg 126 291 colors green red orange purple;
#X msg 134 314 colors #000000 #ffffff #ff0000 #3a12ff;
#X text 155 157 Set its size;
#X msg 66 157 size 102 32;
#X text 175 179 Set its size;
#X msg 86 179 size 132 22;
#X msg 177 469 align -1;
#X msg 177 448 align 0;
#X msg 177 427 align 1;
#X obj 542 224 cnv 15 400 60 empty empty empty 20 12 0 14 -4034 -66577
0;
#X text 547 232 To move the [menubutton] \, switch to edit mode and
draw a selection rectangle around it. The [menubutton] will temporarly
be disabled allowing you to drag it.;
#X obj 540 295 cnv 15 400 15 empty empty empty 20 12 0 14 -257985 -66577
0;
#X text 543 293 Creation arguments:;
#X text 555 365 5: save menu items flag;
#X msg 176 557 add \$1;
#X text 556 402 8: highlight color (#000000 html or tk colors);
#X text 556 391 7: foreground color (#000000 hmtl or tk colors);
#X text 554 378 6: background color (#000000 html or tk colors);
#X text 555 415 9: contour color (#000000 html or tk colors);
#X text 554 428 10: horizontal alignement;
#X text 550 443 \, : anything after a comma will be parsed as the menu
items. Each menu item must be separated by a comma.;
#X text 214 403 Select an item by index without outputing it;
#X text 235 427 align right;
#X text 237 447 align center;
#X text 243 468 align left;
#X text 209 359 Select and output a menu item by index;
#X obj 2 2 cnv 15 400 100 empty empty empty 20 12 0 14 -260097 -66577
0;
#X text 12 11 description: a button with a popup menu;
#X text 173 491 Adding items with spaces;
#X obj 540 521 cnv 15 400 30 empty empty empty 20 12 0 14 -232576 -66577
0;
#X text 544 499 The [menubutton] at left was created with the following:
;
#X text 546 519 [tof/menubutton 132 22 \$0s \$0r 1 green red orange
purple 0 \, a \, b \, c \, d \, e \, f \, with spaces];
#X text 105 619 output: index name;
#X text 216 379 Select an item by name without outputing it;
#N canvas 29 335 494 344 META 0;
#X text 12 165 HELP_PATCH_AUTHORS "pd meta" information added by Jonathan
Wilkes for Pd version 0.42.;
#X text 12 145 AUTHOR Thomas Ouellet Fredericks;
#X text 12 5 KEYWORDS control GUI user_input;
#X text 12 105 INLET_0 float clear add size saveitems colors set align
;
#X text 12 125 OUTLET_0 list;
#X text 12 69 LICENSE S.I. BSD (with an exception of the code bits
from bbogart/popup which are GPL);
#X text 12 25 DESCRIPTION a button with a popup menu based on [ggee/button]
from Guenter Geiger and [bbogart/popup] from Ben Bogart;
#X restore 921 581 pd META;
#X text 13 30 tags: ui menu;
#X text 14 49 author: mrtoftrash@gmail.com;
#X text 12 70 version: 2009-12-20 (0.3);
#X obj 176 510 makefilename more\ spaces;
#X symbolatom 176 534 13 0 0 0 - - -;
#X obj 155 511 bng 15 250 50 0 empty empty empty 17 7 0 10 -262144
-1 -1;
#X connect 0 0 16 0;
#X connect 1 0 0 0;
#X connect 2 0 0 0;
#X connect 3 0 0 0;
#X connect 4 0 3 0;
#X connect 5 0 9 0;
#X connect 8 0 21 0;
#X connect 15 0 0 0;
#X connect 16 0 17 0;
#X connect 16 1 18 0;
#X connect 21 0 19 0;
#X connect 21 1 20 0;
#X connect 22 0 0 0;
#X connect 23 0 0 0;
#X connect 25 0 0 0;
#X connect 27 0 0 0;
#X connect 28 0 0 0;
#X connect 30 0 0 0;
#X connect 32 0 0 0;
#X connect 33 0 0 0;
#X connect 34 0 0 0;
#X connect 35 0 0 0;
#X connect 41 0 0 0;
#X connect 65 0 66 0;
#X connect 66 0 41 0;
#X connect 67 0 65 0;
