#N canvas 1 83 556 485 10;
#X obj 27 182 loadbang;
#X msg 90 182 set a;
#X msg 136 182 set b;
#X msg 182 182 set;
#X obj 234 183 loadbang;
#X msg 297 183 set a;
#X msg 343 183 set b;
#X msg 389 183 set;
#X msg 234 274 1;
#X msg 309 274 0;
#X msg 27 274 1;
#X msg 102 274 0;
#X obj 27 248 bng 15 250 50 0 empty empty empty 17 7 0 10 -262144 -1
-1;
#X obj 102 248 bng 15 250 50 0 empty empty empty 17 7 0 10 -262144
-1 -1;
#X obj 234 248 bng 15 250 50 0 empty empty empty 17 7 0 10 -262144
-1 -1;
#X obj 309 246 bng 15 250 50 0 empty empty empty 17 7 0 10 -262144
-1 -1;
#X obj 27 219 tof/onlyone a;
#X obj 234 219 tof/onlyone b;
#X obj 3 2 cnv 15 400 100 empty empty empty 20 12 0 14 -249661 -66577
0;
#X text 8 53 author: mrtoftrash@gmail.com;
#X text 8 33 tags: initialization control;
#X text 8 74 version: 2009-10-24;
#X text 8 2 description: makes sure it is the first or only [onlyone]
to use that name.;
#X text 41 368 Outlet 1: bangs if it is the first or only one to use
that name.;
#X text 42 400 Outlet 2: bangs if it not the the first and not the
only one to use that name.;
#X obj 27 336 bng 15 250 50 0 empty empty empty 17 7 0 10 -262144 -1
-1;
#X obj 27 308 metro 500;
#X obj 234 308 metro 500;
#X obj 234 336 bng 15 250 50 0 empty empty empty 17 7 0 10 -262144
-1 -1;
#X text 26 140 If both [onlyone] have the same name \, only one metro
will be active.;
#N canvas 150 215 494 344 META 0;
#X text 12 155 HELP_PATCH_AUTHORS "pd meta" information added by Jonathan
Wilkes for Pd version 0.42.;
#X text 12 135 AUTHOR Thomas Ouellet Fredericks;
#X text 12 25 DESCRIPTION make sure it is the first or only [onlyone]
to use that name.;
#X text 12 5 KEYWORDS control nonlocal;
#X text 12 75 INLET_0 bang set;
#X text 12 95 OUTLET_0 bang;
#X text 12 115 OUTLET_1 bang;
#X text 12 55 LICENSE S.I. BSD;
#X restore 452 419 pd META;
#X text 26 108 Try to "set" the name of each [onlyone] to the same
name and then to different names.;
#X connect 0 0 16 0;
#X connect 1 0 16 0;
#X connect 2 0 16 0;
#X connect 3 0 16 0;
#X connect 4 0 17 0;
#X connect 5 0 17 0;
#X connect 6 0 17 0;
#X connect 7 0 17 0;
#X connect 8 0 27 0;
#X connect 9 0 27 0;
#X connect 10 0 26 0;
#X connect 11 0 26 0;
#X connect 12 0 10 0;
#X connect 13 0 11 0;
#X connect 14 0 8 0;
#X connect 15 0 9 0;
#X connect 16 0 12 0;
#X connect 16 1 13 0;
#X connect 17 0 14 0;
#X connect 17 1 15 0;
#X connect 26 0 25 0;
#X connect 27 0 28 0;
