#N canvas 1 79 461 503 10;
#X msg 79 187 symbol list;
#X msg 159 221 symbol until;
#X obj 1 3 cnv 15 400 100 empty empty empty 20 12 0 14 -249661 -66577
0;
#X text 6 59 author: mrtoftrash@gmail.com;
#X msg 180 272 symbol zexy/list2symbol;
#X text 6 2 description: searches for an external's or an abstraction's
help file and tries to open it.;
#X text 6 80 version: 2009-09-25;
#X text 5 39 tags: file patch;
#X obj 79 314 tof/openHelp;
#X obj 4 109 cnv 15 400 30 empty empty empty 20 12 0 14 -261234 -66577
0;
#X text 12 115 openHelp is deprecated. Please use open_help instead.
;
#N canvas 234 175 494 344 META 0;
#X text 12 115 HELP_PATCH_AUTHORS "pd meta" information added by Jonathan
Wilkes for Pd version 0.42.;
#X text 12 95 AUTHOR Thomas Ouellet Fredericks;
#X text 12 25 DESCRIPTION searches for an external's or an abstraction's
help file and tries to open it;
#X text 12 75 INLET_0 bang;
#X text 12 5 KEYWORDS control filesystem patch_op deprecated;
#X text 12 55 LICENSE S.I. BSD;
#X restore 369 398 pd META;
#X connect 0 0 8 0;
#X connect 1 0 8 0;
#X connect 4 0 8 0;
