#N canvas 1 79 515 325 10;
#X obj 3 3 cnv 15 400 100 empty empty empty 20 12 0 14 -249661 -66577
0;
#X text 8 58 author: mrtoftrash@gmail.com;
#X text 8 78 version: 2009-04-14 (initial release);
#X text 8 6 description: forwards all incomming OSC messages to matching
params.;
#X text 8 40 tags: routing param OSC;
#X obj 33 137 tof/OSCToParam 3475;
#X text 32 158 All OSC messages received on port 3475 will be forwarded
to matching params.;
#N canvas 235 204 494 344 META 0;
#X text 12 95 HELP_PATCH_AUTHORS "pd meta" information added by Jonathan
Wilkes for Pd version 0.42.;
#X text 12 75 AUTHOR Thomas Ouellet Fredericks;
#X text 12 5 KEYWORDS control network;
#X text 12 25 DESCRIPTION forward all incomming OSC messages to matching
params;
#X text 12 55 LICENSE S.I. BSD;
#X restore 455 294 pd META;
#X text 26 296 OSCToParam depends on oscx/dumpOSC and maxlib/remote
;
