#N canvas 1 81 536 537 10;
#X obj 113 193 openpanel;
#X obj 112 170 bng 15 250 50 0 empty empty empty 17 7 0 10 -262144
-1 -1;
#X obj 333 121 tgl 15 0 empty empty empty 17 7 0 10 -262144 -1 -1 0
1;
#X obj 54 416 pix_texture;
#X obj 135 250 tgl 15 0 empty empty empty 17 7 0 10 -262144 -1 -1 0
1;
#X floatatom 118 391 5 0 0 0 - - -, f 5;
#X msg 113 218 open \$1;
#X floatatom 180 278 5 0 0 0 - - -, f 5;
#X obj 333 156 tof/gemwin+;
#X text 218 280 inlet 3 \, float: speed;
#X text 159 248 inlet 2 \, 0/1: stop/play;
#X text 167 217 inlet 2 \, open (file): opens the movie file;
#X obj 54 128 gemhead;
#X obj 54 439 rectangle 5.333 4;
#X floatatom 184 368 5 0 0 0 - - -, f 5;
#X text 220 369 outlet 3 \, float: total number of frames;
#X text 158 387 outlet 2 \, float: current frame;
#X text 171 437 outlet 1 \, gemlist;
#X text 107 126 inlet 1 \, gemlist;
#X text 198 309 argument 1 \, (file): opens the movie file (optional)
;
#N canvas 371 163 494 344 META 0;
#X text 12 205 HELP_PATCH_AUTHORS "pd meta" information added by Jonathan
Wilkes for Pd version 0.42.;
#X text 12 185 AUTHOR Thomas Ouellet Fredericks;
#X text 12 25 DESCRIPTION a more user friendly movie file player for
Gem;
#X text 12 5 KEYWORDS control;
#X text 12 65 INLET_0 gemlist;
#X text 12 85 INLET_1 float open;
#X text 12 105 INLET_2 float;
#X text 12 125 OUTLET_0 gemlist;
#X text 12 145 OUTLET_1 float;
#X text 12 165 OUTLET_2 float;
#X text 12 45 LICENSE S.I. BSD;
#X restore 461 492 pd META;
#X obj 2 2 cnv 15 400 100 empty empty empty 20 12 0 14 -249661 -66577
0;
#X text 10 48 author: mrtoftrash@gmail.com;
#X text 10 6 description: A more user friendly movie file player for
Gem.;
#X text 9 26 tags: Gem File;
#X text 8 69 version: 2010-05-28 (initial release \, 0.1);
#X obj 54 310 tof/pix_film+ homer.avi;
#X text 22 501 tof/pix_film+ depends on Gem \, [maxlib/pwrap] \, [ggee/getdir]
\, [cyclone/tosymbol] and [zexy/relay];
#X connect 0 0 6 0;
#X connect 1 0 0 0;
#X connect 2 0 8 0;
#X connect 3 0 13 0;
#X connect 4 0 26 1;
#X connect 6 0 26 1;
#X connect 7 0 26 2;
#X connect 12 0 26 0;
#X connect 26 0 3 0;
#X connect 26 1 5 0;
#X connect 26 2 14 0;
