#N canvas 897 79 1022 684 10;
#X obj 94 14 inlet;
#X obj 94 615 outlet;
#X obj 94 160 t a b;
#X obj 166 14 inlet;
#X obj 186 621 outlet frame;
#X msg 166 162 open \$1;
#X obj 357 623 outlet length;
#X obj 420 14 inlet speed;
#X obj 608 14 loadbang;
#X msg 193 186 set -1;
#X obj 139 293 change -1;
#X obj 166 110 t a b;
#X obj 502 243 t b f;
#X obj 420 145 f 1;
#X obj 514 323 *;
#X msg 420 95 1 \$1;
#X obj 420 120 /;
#X obj 423 433 / 33.36;
#X obj 166 51 zexy/relay open;
#X obj 116 427 t f f;
#N canvas 1 80 786 535 length&ms/frame 0;
#X obj 149 139 unpack f f f f;
#X obj 149 109 t a b;
#X msg 254 139 29.97;
#X obj 239 193 f;
#X obj 290 294 expr 1000/$f1;
#X obj 239 237 sel -1;
#X msg 239 265 29.97;
#X obj 149 58 inlet;
#X obj 149 167 t f b;
#X obj 149 363 outlet length;
#X obj 290 364 outlet ms/frame;
#X connect 0 0 8 0;
#X connect 0 3 3 1;
#X connect 1 0 0 0;
#X connect 1 1 2 0;
#X connect 2 0 3 1;
#X connect 3 0 5 0;
#X connect 4 0 10 0;
#X connect 5 0 6 0;
#X connect 5 1 4 0;
#X connect 6 0 4 0;
#X connect 7 0 1 0;
#X connect 8 0 9 0;
#X connect 8 1 3 0;
#X restore 116 371 pd length&ms/frame;
#X obj 423 386 realtime;
#X obj 423 335 t b b;
#X obj 356 479 + 0;
#X obj 253 107 t f b b;
#X msg 371 229 0;
#X obj 220 243 spigot;
#X obj 94 322 pix_film;
#X obj 356 562 int;
#X obj 356 534 t f f;
#X obj 356 593 t f f;
#X obj 608 64 tof/arguments;
#X obj 614 124 cyclone/tosymbol;
#X obj 608 39 t b b;
#X obj 735 126 ggee/getdir 1;
#X obj 614 157 pack s s;
#X msg 614 183 open \$2/\$1;
#X obj 557 98 route bang;
#X obj 356 507 maxlib/pwrap 0 100;
#X connect 0 0 2 0;
#X connect 2 0 27 0;
#X connect 2 1 26 0;
#X connect 3 0 18 0;
#X connect 5 0 27 0;
#X connect 7 0 15 0;
#X connect 8 0 33 0;
#X connect 9 0 10 0;
#X connect 10 0 27 1;
#X connect 11 0 5 0;
#X connect 11 1 9 0;
#X connect 12 0 13 0;
#X connect 12 1 14 1;
#X connect 13 0 14 0;
#X connect 14 0 17 1;
#X connect 15 0 16 0;
#X connect 16 0 13 0;
#X connect 17 0 23 0;
#X connect 18 0 11 0;
#X connect 18 1 24 0;
#X connect 19 0 6 0;
#X connect 19 1 38 2;
#X connect 20 0 19 0;
#X connect 20 1 12 0;
#X connect 21 0 17 0;
#X connect 22 0 21 0;
#X connect 22 1 21 1;
#X connect 23 0 38 0;
#X connect 24 0 26 1;
#X connect 24 1 21 0;
#X connect 24 2 25 0;
#X connect 25 0 23 1;
#X connect 26 0 22 0;
#X connect 27 0 1 0;
#X connect 27 1 20 0;
#X connect 28 0 30 0;
#X connect 29 0 28 0;
#X connect 29 1 23 1;
#X connect 30 0 4 0;
#X connect 30 1 10 0;
#X connect 31 0 37 0;
#X connect 32 0 35 0;
#X connect 33 0 31 0;
#X connect 33 1 34 0;
#X connect 34 0 35 1;
#X connect 35 0 36 0;
#X connect 36 0 27 0;
#X connect 37 1 32 0;
#X connect 38 0 29 0;
