#N canvas 38 208 757 660 10;
#X obj 251 134 key;
#X msg 106 219 clear;
#X obj 251 160 sel 65;
#X text 300 160 <- Shift+A will open the menu;
#X msg 45 108 add a bb ccc dddd eeeee;
#X msg 252 267 2;
#X msg 284 267 3;
#X text 218 109 add items;
#X obj 277 364 r \$0pmenu;
#X obj 354 364 bng 15 250 50 0 \$0pmenu empty empty 17 7 0 10 -262144
-1 -1;
#X msg 316 267 -1;
#X msg 246 234 colors green purple grey;
#X obj 45 481 tof/pmenu 1 1 black white red;
#X text 298 581 3: background color (#000000 html or tk colors);
#X text 296 596 4: foreground color (#000000 hmtl or tk colors);
#X text 298 611 5: highlight color (#000000 html or tk colors);
#X text 244 204 values can be tk colors(red \, blue \, etc) or html
colors (#ffffff);
#X text 243 188 colors: background foreground highlight;
#X text 297 552 2: focus the item that was last selected when the menu
pops. On (1) by default.;
#X text 296 521 1: display the indicator (the little bullet next to
item that was last selected). On (1) by default.;
#X obj 2 2 cnv 15 400 100 empty empty empty 20 12 0 14 -261234 -66577
0;
#X obj 300 503 cnv 15 400 15 empty empty empty 20 12 0 14 -257985 -66577
0;
#X text 303 501 Creation arguments:;
#X msg 85 194 add \$1;
#X text 82 128 Adding items with spaces;
#X obj 26 300 bng 15 250 50 0 empty empty empty 17 7 0 10 -262144 -1
-1;
#X text 45 296 Pop the menu;
#X text 282 126 You can assign any key to pop the menu (Shift+A) in
this case.;
#X text 347 266 Select and output a menu item by index;
#X msg 298 296 set a;
#X msg 303 318 symbol a;
#X text 368 318 Select an item by name and output it;
#X text 342 296 Select an item by name without outputing it;
#X text 376 362 <- you can pop the menu from any gui by sending a bang
to \$0pmenu (because a receive is associated to it);
#N canvas 280 164 494 344 META 0;
#X text 12 168 HELP_PATCH_AUTHORS "pd meta" information added by Jonathan
Wilkes for Pd version 0.42.;
#X text 12 148 AUTHOR Thomas Ouellet Fredericks;
#X text 12 5 KEYWORDS control GUI user_input;
#X text 12 88 INLET_0 bang add clear color;
#X text 12 108 OUTLET_0 float;
#X text 12 128 OUTLET_1 symbol float;
#X text 12 25 DESCRIPTION pops a menu based on [bbogart/popup] by Ben
Bogart and [ggee/button] by Guenter Geiger;
#X text 12 57 LICENSE S.I. BSD except the bits from bbogart/popup which
are GPL;
#X restore 697 625 pd META;
#X obj 45 520 print index;
#X obj 144 520 print value;
#X text 10 48 author: mrtoftrash@gmail.com;
#X text 11 28 tags: ui;
#X text 11 9 description: pops a menu;
#X msg 278 401 max_column_height 60;
#X obj 85 148 makefilename more\ spaces;
#X symbolatom 85 172 13 0 0 0 - - -;
#X obj 64 149 bng 15 250 50 0 empty empty empty 17 7 0 10 -262144 -1
-1;
#X text 419 399 Set the maximum height of the list. Every time this
value is reached \, a new column wil be started. The default behaviour
(one 30 item column \, second unlimited) is value 0 The setting is
intended to be used before adding items. NOTE: This feature is not
active on MacOS \, where all items are in one column., f 50;
#X text 8 69 version: 2020-09-17 ((0.32);
#X connect 0 0 2 0;
#X connect 1 0 12 0;
#X connect 2 0 12 0;
#X connect 4 0 12 0;
#X connect 5 0 12 0;
#X connect 6 0 12 0;
#X connect 8 0 12 0;
#X connect 10 0 12 0;
#X connect 11 0 12 0;
#X connect 12 0 35 0;
#X connect 12 1 36 0;
#X connect 23 0 12 0;
#X connect 25 0 12 0;
#X connect 29 0 12 0;
#X connect 30 0 12 0;
#X connect 40 0 12 0;
#X connect 41 0 42 0;
#X connect 42 0 23 0;
#X connect 43 0 41 0;
