#N canvas 1030 150 551 480 10;
#X text 30 106 Warning: [tof/sample_packel] is only for advanced users!
;
#X msg 146 220 sample test;
#X text 225 216 Inlet 2 \, sample symbol: the sample to be modified
;
#X text 135 138 Change the end of the sample;
#X text 169 163 Change the start of the sample;
#X obj 57 249 tof/sample_packel;
#N canvas 284 192 494 344 META 0;
#X text 12 125 HELP_PATCH_AUTHORS "pd meta" information added by Jonathan
Wilkes for Pd version 0.42.;
#X text 12 105 AUTHOR Thomas Ouellet Fredericks;
#X text 12 45 DESCRIPTION modify the properties of a sample;
#X text 12 5 KEYWORDS control abstraction array;
#X text 12 65 INLET_0 start end;
#X text 12 85 INLET_1 sample;
#X text 12 25 LICENSE S.I. BSD;
#X restore 489 406 pd META;
#X obj 2 2 cnv 15 400 100 empty empty empty 20 12 0 14 -249661 -66577
0;
#X text 10 48 author: mrtoftrash@gmail.com;
#X text 10 6 description: Modifies the properties of a sample;
#X text 9 26 tags: Sample Sound;
#X text 8 69 version: 2010-05-28 (initial release \, 0.1);
#X text 15 410 [tof/sample_packel] depends on [iemlib/iem_send];
#X msg 57 139 end 31000;
#X msg 92 164 start 10000;
#X msg 102 188 start 0 \, end 62079;
#X text 225 188 Restore original pointers;
#X text 193 247 comment;
#X text 43 305 Sample playback:;
#X obj 70 345 tof/sample_play~ test;
#X obj 70 327 bng 15 250 50 0 empty empty empty 17 7 0 10 -262144 -1
-1;
#X obj 70 367 tof/output~;
#X obj 266 337 bng 15 250 50 0 empty empty empty 17 7 0 10 -262144
-1 -1;
#X msg 292 337 read voice.wav;
#X obj 266 373 tof/sample test voice.wav;
#X text 262 313 comment;
#X connect 1 0 5 1;
#X connect 13 0 5 0;
#X connect 14 0 5 0;
#X connect 15 0 5 0;
#X connect 19 0 21 0;
#X connect 19 1 21 1;
#X connect 20 0 19 0;
#X connect 22 0 24 0;
#X connect 23 0 24 0;
