#N canvas 436 80 683 625 10;
#X obj 47 166 bng 15 250 50 0 empty empty empty 17 7 0 10 -262144 -1
-1;
#X obj 84 582 tof/sample_unpack;
#X text 51 112 Inlet 1;
#X text 321 172 symbol: Sample name;
#X text 281 158 Argument 1;
#X text 69 125 read symbol: Read sound file into the sample's tables
;
#X text 281 195 Argument 2 (optional):;
#X text 324 212 symbol: Sound file to read into the sample's tables
when created;
#X text 323 242 float: Set the default length of the sample's tables
;
#X text 278 260 Argument 3 (optional):;
#X text 319 276 float: Set a default number of channels \, either 1
or 2;
#X text 51 307 The following example creates a mono (1 channel) sample
with a table size of 441000 (10 seconds at 44100hz);
#X text 62 389 Sample playback:;
#X text 56 556 Sample development:;
#X obj 84 602 tof/sample_packel;
#X text 327 398 Sample record:;
#X obj 31 225 cnv 15 230 20 empty empty empty 20 12 0 14 -260058 -66577
0;
#X text 71 141 bang: Display open panel;
#X obj 79 528 tof/sample_shifft~;
#X obj 80 504 tof/sample_granule~;
#X obj 350 419 tof/sample_record~;
#X obj 80 428 tof/sample_play~ test;
#X obj 80 410 bng 15 250 50 0 empty empty empty 17 7 0 10 -262144 -1
-1;
#X text 45 226 Click on [tof/sample] to view info;
#N canvas 335 250 494 344 META 0;
#X text 12 105 HELP_PATCH_AUTHORS "pd meta" information added by Jonathan
Wilkes for Pd version 0.42.;
#X text 12 85 AUTHOR Thomas Ouellet Fredericks;
#X text 12 45 DESCRIPTION load a sound file (wav) as a sample;
#X text 12 5 KEYWORDS control abstraction array soundfile;
#X text 12 65 INLET_0 bang read;
#X text 12 25 LICENSE S.I. BSD;
#X restore 629 571 pd META;
#X msg 73 166 read voice.wav;
#X obj 53 341 tof/sample empty 441000 1;
#X obj 47 202 tof/sample test voice.wav;
#X obj 2 2 cnv 15 400 100 empty empty empty 20 12 0 14 -249661 -66577
0;
#X text 10 48 author: mrtoftrash@gmail.com;
#X text 10 6 description: Loads a sound file (wav) as a sample;
#X text 9 26 tags: File Sound Table Sample;
#X text 8 69 version: 2010-10-11 (0.4);
#X obj 80 450 tof/output~;
#X connect 0 0 27 0;
#X connect 21 0 33 0;
#X connect 21 1 33 1;
#X connect 22 0 21 0;
#X connect 25 0 27 0;
