#N canvas 1 83 716 518 10;
#X obj 25 140 bng 15 250 50 0 empty empty empty 17 7 0 10 -262144 -1
-1;
#X obj 41 175 tgl 15 0 empty empty empty 17 7 0 10 -262144 -1 -1 0
1;
#X floatatom 107 299 5 0 0 0 - - -, f 5;
#X text 45 139 Inlet 1 \, bang: Play sample once;
#X text 60 172 Inlet 1 \, float: Start/stop playing looped sample;
#X text 166 202 Inlet 1 \, grain float: Configure grain length (# of
samples);
#X msg 63 206 grain 360;
#X msg 77 230 grain 7056;
#X msg 93 254 grain 1764;
#X obj 479 150 bng 15 250 50 0 empty empty empty 17 7 0 10 -262144
-1 -1;
#X floatatom 190 326 5 0 0 0 - - -, f 5;
#X text 228 325 Inlet 3 \, float: Duration in milliseconds;
#X obj 201 345 bng 15 250 50 0 empty empty empty 17 7 0 10 -262144
-1 -1;
#X text 236 343 Inlet 3 \, bang: Reset to original duration;
#X text 145 297 Inlet 2 \, float: Pitch (1=original pitch);
#X obj 190 411 bng 15 250 50 0 empty empty empty 17 7 0 10 -262144
-1 -1;
#X floatatom 136 452 5 0 0 0 - - -, f 5;
#X text 173 453 Outlet 3 \, signal: progress;
#X text 216 408 Outlet 4 \, bang: done;
#N canvas 430 191 494 344 META 0;
#X text 12 235 HELP_PATCH_AUTHORS "pd meta" information added by Jonathan
Wilkes for Pd version 0.42.;
#X text 12 215 AUTHOR Thomas Ouellet Fredericks;
#X text 12 25 DESCRIPTION pitchshift or timestretch a sample with the
granular method;
#X text 12 5 KEYWORDS control abstraction soundfile;
#X text 12 75 INLET_0 bang float grain;
#X text 12 95 INLET_1 float;
#X text 12 115 INLET_2 float bang;
#X text 12 135 OUTLET_0 signal;
#X text 12 155 OUTLET_1 signal;
#X text 12 175 OUTLET_2 signal;
#X text 12 195 OUTLET_3 bang;
#X text 12 55 LICENSE S.I. BSD;
#X restore 635 473 pd META;
#X obj 25 381 tof/sample_granule~ smpgranu;
#X obj 24 433 tof/output~;
#X obj 2 2 cnv 15 400 100 empty empty empty 20 12 0 14 -249661 -66577
0;
#X text 10 57 author: mrtoftrash@gmail.com;
#X text 10 6 description: Pitchshifts or timestretches a sample with
the granular method;
#X text 9 35 tags: Sound Sample Play;
#X text 8 78 version: 2010-08-02 (0.3);
#X obj 479 176 tof/sample smpgranu tof/voice.wav;
#X text 11 495 [tof/sample_granule~] depends on [cyclone/trapezoid]
and [cyclone/pong~], f 92;
#X obj 136 430 snapshot~;
#X obj 357 413 metro 100;
#X obj 357 393 tgl 15 0 empty empty empty 17 7 0 10 -262144 -1 -1 1
1;
#X obj 139 472 hsl 128 15 0 1 0 0 empty empty empty -2 -8 0 10 -262144
-1 -1 10783 1;
#X connect 0 0 20 0;
#X connect 1 0 20 0;
#X connect 2 0 20 1;
#X connect 6 0 20 0;
#X connect 7 0 20 0;
#X connect 8 0 20 0;
#X connect 9 0 27 0;
#X connect 10 0 20 2;
#X connect 12 0 20 2;
#X connect 16 0 32 0;
#X connect 20 0 21 0;
#X connect 20 1 21 1;
#X connect 20 2 29 0;
#X connect 20 3 15 0;
#X connect 29 0 16 0;
#X connect 30 0 29 0;
#X connect 31 0 30 0;
