#N canvas 1 83 763 458 10;
#X obj 36 379 print rate;
#X obj 113 379 print file;
#X obj 295 379 print channels;
#X msg 146 218 bang;
#X obj 400 379 print end;
#X obj 469 379 print start;
#X msg 36 189 sample smpunpck;
#X text 143 188 Inlet 1 \, sample symbol: output the sample's information
;
#X text 182 216 Inlet1 \, bang: re-outputs the sample's information
;
#X obj 544 234 tof/sample smpunpck;
#X msg 544 207 read \$1;
#X obj 544 183 openpanel;
#X obj 544 163 bng 15 250 50 0 empty empty empty 17 7 0 10 -262144
-1 -1;
#X text 568 160 Load a sound file (wav);
#X obj 36 269 tof/sample_unpack;
#X obj 552 379 print size;
#X obj 190 379 print basename;
#N canvas 305 220 494 344 META 0;
#X text 12 245 HELP_PATCH_AUTHORS "pd meta" information added by Jonathan
Wilkes for Pd version 0.42.;
#X text 12 225 AUTHOR Thomas Ouellet Fredericks;
#X text 12 85 OUTLET_0 float;
#X text 12 5 KEYWORDS control filesystem soundfile;
#X text 12 25 DESCRIPTION output a sample's information;
#X text 12 65 INLET_0 bang sample;
#X text 12 105 OUTLET_1 symbol;
#X text 12 125 OUTLET_2 symbol;
#X text 12 145 OUTLET_3 float;
#X text 12 165 OUTLET_4 float;
#X text 12 185 OUTLET_5 float;
#X text 12 205 OUTLET_6 float;
#X text 12 45 LICENSE S.I. BSD;
#X restore 705 415 pd META;
#X msg 615 184 read voice.wav;
#X obj 2 2 cnv 15 400 100 empty empty empty 20 12 0 14 -249661 -66577
0;
#X text 10 48 author: mrtoftrash@gmail.com;
#X text 10 6 description: Outputs a sample's information;
#X text 9 26 tags: Sample Sound;
#X text 8 69 version: 2010-08-02 (0.3);
#X connect 3 0 14 0;
#X connect 6 0 14 0;
#X connect 10 0 9 0;
#X connect 11 0 10 0;
#X connect 12 0 11 0;
#X connect 14 0 0 0;
#X connect 14 1 1 0;
#X connect 14 2 16 0;
#X connect 14 3 2 0;
#X connect 14 4 4 0;
#X connect 14 5 5 0;
#X connect 14 6 15 0;
#X connect 18 0 9 0;
