#N canvas 1 79 766 482 10;
#X text 247 253 Argument 1 \, symbol: the name of the sample to record
to;
#X obj 65 198 adc~;
#X obj 230 176 tgl 15 0 empty empty empty 17 7 0 10 -262144 -1 -1 0
1;
#X text 449 90 A 10 second mono sample (at a samplerate of 44100);
#X obj 75 331 bng 15 250 50 0 empty empty empty 17 7 0 10 -262144 -1
-1;
#X obj 104 332 tgl 15 0 empty empty empty 17 7 0 10 -262144 -1 -1 0
1;
#X msg 249 215 sample recording;
#X text 57 126 Inlet 1 \, signal: left or mono channel audio data;
#X text 56 141 Inlet 2 \, signal: right channel audio data;
#X text 354 215 Inlet 3 \, sample symbol: set the sample;
#X text 251 171 Inlet 3 \, float: turn recording on/off. The maximum
recording length is limited by the size of the sample;
#X text 130 329 Play or loop the recording;
#X obj 452 112 tof/sample recording 441000 1;
#X obj 75 373 tof/sample_play~ recording;
#N canvas 367 288 494 344 META 0;
#X text 12 145 HELP_PATCH_AUTHORS "pd meta" information added by Jonathan
Wilkes for Pd version 0.42.;
#X text 12 125 AUTHOR Thomas Ouellet Fredericks;
#X text 12 25 DESCRIPTION record into samples;
#X text 12 5 KEYWORDS control abstraction array soundfile;
#X text 12 65 INLET_0 signal;
#X text 12 85 INLET_1 signal;
#X text 12 105 INLET_2 float sample;
#X text 12 45 LICENSE S.I. BSD;
#X restore 705 427 pd META;
#X obj 65 253 tof/sample_record~ recording;
#X obj 74 416 tof/output~;
#X obj 2 2 cnv 15 400 100 empty empty empty 20 12 0 14 -249661 -66577
0;
#X text 10 48 author: mrtoftrash@gmail.com;
#X text 10 6 description: Records into samples;
#X text 9 26 tags: Sound Sample Record;
#X text 7 69 version: 2010-08-02 (0.4);
#X connect 1 0 15 0;
#X connect 2 0 15 2;
#X connect 4 0 13 0;
#X connect 5 0 13 0;
#X connect 6 0 15 2;
#X connect 13 0 16 0;
#X connect 13 1 16 1;
