#N canvas 232 140 1039 766 10;
#X obj 90 11 inlet;
#X obj 20 715 outlet~;
#X obj 69 715 outlet~;
#X obj 21 684 *~;
#X obj 70 684 *~;
#X obj 243 10 inlet pitch;
#X obj 38 125 sig~ 1;
#N canvas 637 81 902 691 grains 0;
#X obj 104 634 outlet~;
#X obj 100 27 inlet~;
#X obj 282 27 inlet~;
#X obj 321 630 outlet~;
#X obj 600 27 inlet grain_length;
#X obj 282 269 phasor~;
#X obj 283 331 +~ 0.5;
#X obj 282 367 wrap~;
#X obj 283 239 *~ 1;
#X obj 727 42 loadbang;
#N canvas 0 90 1022 684 grain~ 0;
#X obj 113 468 tabread4~;
#X msg 163 436 set \$1;
#X obj -29 81 inlet~ offset(normalized);
#X obj 137 79 inlet~ phasor;
#X obj 65 237 samphold~;
#X obj 64 280 +~;
#X obj 129 609 outlet~;
#X obj 832 200 clip 0 0.5;
#X obj 128 577 *~;
#X obj 668 394 samphold~;
#X obj 594 394 samphold~;
#X obj 265 459 tabread4~;
#X obj 276 616 outlet~;
#X obj 275 584 *~;
#X msg 333 420 set \$1;
#X obj 830 254 expr 1-$f1;
#X obj 658 320 sig~ 0.01;
#X obj 774 347 sig~ 0.99;
#X obj 138 228 *~ 7056;
#X obj 610 170 unpack s s;
#X obj 492 80 inlet tables;
#X obj 714 74 inlet grain_length;
#X obj 845 72 inlet grain_fade;
#X obj 65 340 cyclone/pong~ 1 10000 40000;
#X obj 113 285 r \$0-sampstart;
#X obj 196 302 r \$0-sampend;
#X obj 432 424 *~ 1;
#X obj 451 394 r \$0han_size;
#X obj 442 495 tabread4~ \$0han;
#X connect 0 0 8 0;
#X connect 1 0 0 0;
#X connect 2 0 4 0;
#X connect 3 0 4 1;
#X connect 3 0 10 1;
#X connect 3 0 9 1;
#X connect 3 0 18 0;
#X connect 3 0 26 0;
#X connect 4 0 5 0;
#X connect 5 0 23 0;
#X connect 7 0 15 0;
#X connect 7 0 16 0;
#X connect 8 0 6 0;
#X connect 11 0 13 0;
#X connect 13 0 12 0;
#X connect 14 0 11 0;
#X connect 15 0 17 0;
#X connect 16 0 10 0;
#X connect 17 0 9 0;
#X connect 18 0 5 1;
#X connect 19 0 1 0;
#X connect 19 1 14 0;
#X connect 20 0 19 0;
#X connect 21 0 18 1;
#X connect 22 0 7 0;
#X connect 23 0 11 0;
#X connect 23 0 0 0;
#X connect 24 0 23 1;
#X connect 25 0 23 2;
#X connect 26 0 28 0;
#X connect 27 0 26 1;
#X connect 28 0 8 1;
#X connect 28 0 13 1;
#X restore 103 512 pd grain~;
#X obj 101 181 *~ 0;
#X obj 102 245 +~ 0;
#X obj 122 147 r \$0-samplength;
#X obj 123 212 r \$0-sampstart;
#X obj 473 27 inlet tables;
#X obj 600 113 unpack f f;
#X obj 304 153 t b f;
#X obj 304 179 samplerate~;
#X obj 304 208 /;
#N canvas 895 133 1022 684 grain~ 0;
#X obj 155 468 tabread4~;
#X msg 205 436 set \$1;
#X obj 13 81 inlet~ offset(normalized);
#X obj 179 79 inlet~ phasor;
#X obj 107 237 samphold~;
#X obj 106 280 +~;
#X obj 171 609 outlet~;
#X obj 874 200 clip 0 0.5;
#X obj 170 577 *~;
#X obj 710 394 samphold~;
#X obj 636 394 samphold~;
#X obj 307 459 tabread4~;
#X obj 318 616 outlet~;
#X obj 317 584 *~;
#X msg 375 420 set \$1;
#X obj 872 254 expr 1-$f1;
#X obj 700 320 sig~ 0.01;
#X obj 816 347 sig~ 0.99;
#X obj 180 228 *~ 7056;
#X obj 652 170 unpack s s;
#X obj 534 80 inlet tables;
#X obj 756 74 inlet grain_length;
#X obj 887 72 inlet grain_fade;
#X obj 117 350 cyclone/pong~ 1 10000 40000;
#X obj 165 295 r \$0-sampstart;
#X obj 248 312 r \$0-sampend;
#X obj 484 434 *~ 1;
#X obj 503 404 r \$0han_size;
#X obj 494 505 tabread4~ \$0han;
#X connect 0 0 8 0;
#X connect 1 0 0 0;
#X connect 2 0 4 0;
#X connect 3 0 4 1;
#X connect 3 0 10 1;
#X connect 3 0 9 1;
#X connect 3 0 18 0;
#X connect 3 0 26 0;
#X connect 4 0 5 0;
#X connect 5 0 23 0;
#X connect 7 0 15 0;
#X connect 7 0 16 0;
#X connect 8 0 6 0;
#X connect 11 0 13 0;
#X connect 13 0 12 0;
#X connect 14 0 11 0;
#X connect 15 0 17 0;
#X connect 16 0 10 0;
#X connect 17 0 9 0;
#X connect 18 0 5 1;
#X connect 19 0 1 0;
#X connect 19 1 14 0;
#X connect 20 0 19 0;
#X connect 21 0 18 1;
#X connect 22 0 7 0;
#X connect 23 0 0 0;
#X connect 23 0 11 0;
#X connect 24 0 23 1;
#X connect 25 0 23 2;
#X connect 26 0 28 0;
#X connect 27 0 26 1;
#X connect 28 0 8 1;
#X connect 28 0 13 1;
#X restore 271 512 pd grain~;
#X msg 727 68 7056 0.5;
#X connect 1 0 11 0;
#X connect 2 0 8 0;
#X connect 4 0 16 0;
#X connect 5 0 6 0;
#X connect 5 0 10 1;
#X connect 6 0 7 0;
#X connect 7 0 20 1;
#X connect 8 0 5 0;
#X connect 9 0 21 0;
#X connect 10 0 0 0;
#X connect 10 1 3 0;
#X connect 11 0 12 0;
#X connect 12 0 10 0;
#X connect 12 0 20 0;
#X connect 13 0 11 1;
#X connect 14 0 12 1;
#X connect 15 0 10 2;
#X connect 15 0 20 2;
#X connect 16 0 10 3;
#X connect 16 0 17 0;
#X connect 16 0 20 3;
#X connect 16 1 10 4;
#X connect 16 1 20 4;
#X connect 17 0 18 0;
#X connect 17 1 19 1;
#X connect 18 0 19 0;
#X connect 19 0 8 1;
#X connect 20 0 0 0;
#X connect 20 1 3 0;
#X connect 21 0 16 0;
#X restore 20 436 pd grains;
#X obj 392 468 s \$0-sampstart;
#X obj 414 443 s \$0-samplength;
#X obj 370 494 s \$0-sampend;
#N canvas 528 134 842 452 parse_sample 0;
#X obj 355 385 outlet end;
#X obj 463 385 outlet start;
#X obj 570 385 outlet length;
#X obj 244 385 outlet tables;
#X obj 124 385 outlet base_freq;
#N canvas 1 80 450 300 find_freq 0;
#X obj 72 241 outlet;
#N canvas 326 270 450 373 smpToFreq 0;
#X obj 41 35 inlet;
#X obj 90 179 samplerate~;
#X obj 41 314 outlet;
#X obj 41 67 sel 0;
#X msg 41 179 0;
#X obj 90 104 t b f;
#X obj 90 249 /;
#X connect 0 0 3 0;
#X connect 1 0 6 0;
#X connect 3 0 4 0;
#X connect 3 1 5 0;
#X connect 4 0 2 0;
#X connect 5 0 1 0;
#X connect 5 1 6 1;
#X connect 6 0 2 0;
#X restore 216 95 pd smpToFreq;
#X obj 99 95 samplerate~;
#X obj 72 67 t f b;
#X obj 72 169 *;
#X obj 72 119 /;
#X obj 216 12 inlet length;
#X obj 72 12 inlet samples;
#X connect 1 0 4 1;
#X connect 2 0 5 1;
#X connect 3 0 5 0;
#X connect 3 1 2 0;
#X connect 4 0 0 0;
#X connect 5 0 4 0;
#X connect 6 0 1 0;
#X connect 7 0 3 0;
#X restore 124 185 pd find_freq;
#X obj 362 143 -;
#X obj 305 72 sample_unpack;
#X obj 301 189 > 1;
#X msg 244 289 list 0-\$1 0-\$1;
#X msg 301 321 list 0-\$1 1-\$1;
#X obj 305 7 inlet;
#X obj 380 7 inlet;
#N canvas 1 81 450 300 demux01 0;
#X obj 41 9 inlet;
#X obj 148 9 inlet;
#X obj 41 259 outlet;
#X obj 99 259 outlet;
#X obj 41 226 spigot;
#X obj 99 226 spigot;
#X obj 148 35 t f b;
#X msg 175 61 0;
#X msg 74 192 1;
#X msg 132 192 1;
#X obj 175 84 t f f;
#X text 38 281 replacement for [zexy/demux 1 2];
#X obj 148 149 route 0 1;
#X connect 0 0 4 0;
#X connect 0 0 5 0;
#X connect 1 0 6 0;
#X connect 4 0 2 0;
#X connect 5 0 3 0;
#X connect 6 0 12 0;
#X connect 6 1 7 0;
#X connect 7 0 10 0;
#X connect 8 0 4 1;
#X connect 9 0 5 1;
#X connect 10 0 4 1;
#X connect 10 1 5 1;
#X connect 12 0 8 0;
#X connect 12 1 9 0;
#X restore 244 243 pd demux01;
#X connect 5 0 4 0;
#X connect 6 0 5 1;
#X connect 6 0 2 0;
#X connect 7 0 5 0;
#X connect 7 2 13 0;
#X connect 7 3 8 0;
#X connect 7 4 6 0;
#X connect 7 4 0 0;
#X connect 7 5 6 1;
#X connect 7 5 1 0;
#X connect 8 0 13 1;
#X connect 9 0 3 0;
#X connect 10 0 3 0;
#X connect 11 0 7 0;
#X connect 12 0 7 1;
#X connect 13 0 9 0;
#X connect 13 1 10 0;
#X restore 327 312 pd parse_sample;
#N canvas 1 81 597 611 speed 0;
#X obj 43 359 outlet;
#X obj 235 16 inlet default;
#X obj 43 16 inlet user;
#X obj 43 75 route bang;
#X obj 43 305 f;
#X obj 100 132 /;
#X msg 100 104 1000 \$1;
#X obj 235 294 spigot 1;
#X obj 43 171 t b b;
#X msg 70 219 1;
#X obj 100 171 t f b;
#X msg 127 219 0;
#X connect 1 0 7 0;
#X connect 1 0 4 1;
#X connect 2 0 3 0;
#X connect 3 0 8 0;
#X connect 3 1 6 0;
#X connect 4 0 0 0;
#X connect 5 0 10 0;
#X connect 6 0 5 0;
#X connect 7 0 0 0;
#X connect 8 0 4 0;
#X connect 8 1 9 0;
#X connect 9 0 7 1;
#X connect 10 0 0 0;
#X connect 10 1 11 0;
#X connect 11 0 7 1;
#X restore 349 181 pd speed;
#N canvas 1 80 787 526 hanning 0;
#X obj 325 180 samplerate~;
#X obj 325 207 * 0.016;
#X obj 325 230 int;
#X obj 325 316 until;
#X obj 325 349 f;
#X msg 364 316 0;
#X obj 356 349 + 1;
#X obj 470 344 s \$0han;
#X msg 470 319 resize \$1;
#X obj 356 450 expr cos(($f1/$f2+0.5)*6.283)/2.0+0.5;
#X obj 325 255 + 1;
#X obj 356 497 tabwrite \$0han;
#X obj 356 400 t f f;
#X obj 147 171 table \$0han 16;
#X obj 325 67 inlet;
#X obj 562 306 s \$0han_size;
#X obj 325 282 t f b f f f;
#X connect 0 0 1 0;
#X connect 1 0 2 0;
#X connect 2 0 10 0;
#X connect 3 0 4 0;
#X connect 4 0 6 0;
#X connect 5 0 4 1;
#X connect 6 0 4 1;
#X connect 6 0 12 0;
#X connect 8 0 7 0;
#X connect 9 0 11 0;
#X connect 10 0 16 0;
#X connect 12 0 9 0;
#X connect 12 1 11 1;
#X connect 14 0 0 0;
#X connect 16 0 3 0;
#X connect 16 1 5 0;
#X connect 16 2 9 1;
#X connect 16 3 8 0;
#X connect 16 4 15 0;
#X restore 664 82 pd hanning;
#X obj 664 41 loadbang;
#X obj 349 9 inlet duration;
#X obj 461 41 loadbang;
#X obj 461 73 tof/argument 1;
#X msg 461 104 sample \$1;
#X obj 90 125 route bang float grain;
#X obj 235 717 outlet~ progress;
#X obj 338 717 outlet done;
#N canvas 320 196 914 687 player 0;
#X obj 129 29 inlet bang;
#X obj 253 29 inlet float;
#X obj 388 29 inlet pitch;
#X obj 87 661 outlet~ phase;
#X msg 179 265 0;
#X obj 86 318 tof/phasorshot~;
#X msg 285 204 1;
#X msg 242 204 0;
#X msg 451 355 1;
#X msg 351 362 0;
#X obj 351 85 sel 0;
#N canvas 1 79 450 300 start_phase 0;
#X obj 68 249 outlet;
#X obj 141 27 inlet speed;
#X obj 68 28 inlet bang;
#X obj 68 178 < 0;
#X obj 68 111 f 1;
#X connect 1 0 4 1;
#X connect 2 0 4 0;
#X connect 3 0 0 0;
#X connect 4 0 3 0;
#X restore 129 140 pd start_phase;
#X obj 236 380 spigot;
#X obj 269 300 == 0;
#X obj 242 266 t f f;
#X obj 561 29 inlet speed;
#X obj 294 554 line~;
#X msg 294 528 \$1 5;
#X obj 294 662 outlet~ volume;
#X obj 667 661 outlet done;
#X obj 310 600 cyclone/trapezoid~;
#X obj 588 188 samplerate~;
#X obj 588 137 t b f;
#X obj 588 233 /;
#X obj 561 85 sel 0;
#X obj 588 113 abs;
#X obj 588 299 /;
#X obj 588 336 t f f;
#X msg 667 382 1 \$1;
#X obj 667 408 -;
#X obj 588 440 sig~ 0.0015;
#X obj 667 440 sig~ 0.9985;
#X obj 294 631 *~;
#X obj 544 662 outlet~ progress;
#X obj 378 122 t b b b;
#X obj 129 77 t b b b;
#X obj 85 202 f 0;
#X obj 85 249 sig~ 0;
#X obj 351 336 delay 5;
#X msg 434 289 stop;
#X obj 351 270 t b b;
#X msg 414 355 0;
#X msg 335 528 0;
#X obj 236 414 t b b b;
#X msg 311 382 0;
#X obj 803 661 outlet get;
#X obj 417 256 t b b b b;
#X msg 588 267 256 \$1;
#X connect 0 0 35 0;
#X connect 1 0 10 0;
#X connect 2 0 11 1;
#X connect 4 0 5 1;
#X connect 5 0 3 0;
#X connect 5 0 20 0;
#X connect 5 0 33 0;
#X connect 5 1 12 0;
#X connect 5 2 12 0;
#X connect 6 0 14 0;
#X connect 7 0 14 0;
#X connect 8 0 17 0;
#X connect 9 0 37 0;
#X connect 10 0 40 0;
#X connect 10 1 34 0;
#X connect 11 0 5 1;
#X connect 12 0 43 0;
#X connect 13 0 12 1;
#X connect 14 0 5 2;
#X connect 14 1 13 0;
#X connect 15 0 24 0;
#X connect 15 0 36 0;
#X connect 16 0 32 0;
#X connect 17 0 16 0;
#X connect 20 0 32 1;
#X connect 21 0 23 0;
#X connect 22 0 21 0;
#X connect 22 1 23 1;
#X connect 23 0 47 0;
#X connect 24 1 25 0;
#X connect 25 0 22 0;
#X connect 26 0 27 0;
#X connect 27 0 30 0;
#X connect 27 1 28 0;
#X connect 28 0 29 0;
#X connect 29 0 31 0;
#X connect 30 0 20 1;
#X connect 31 0 20 2;
#X connect 32 0 18 0;
#X connect 34 0 4 0;
#X connect 34 1 6 0;
#X connect 34 2 46 0;
#X connect 35 0 11 0;
#X connect 35 1 7 0;
#X connect 35 2 46 0;
#X connect 36 0 37 0;
#X connect 37 0 5 0;
#X connect 38 0 9 0;
#X connect 39 0 38 0;
#X connect 40 0 38 0;
#X connect 40 1 41 0;
#X connect 41 0 17 0;
#X connect 42 0 16 0;
#X connect 43 0 19 0;
#X connect 43 1 42 0;
#X connect 43 2 44 0;
#X connect 44 0 37 0;
#X connect 46 0 36 0;
#X connect 46 1 39 0;
#X connect 46 2 8 0;
#X connect 46 3 45 0;
#X connect 47 0 26 0;
#X restore 209 247 pd player;
#X connect 0 0 19 0;
#X connect 3 0 1 0;
#X connect 4 0 2 0;
#X connect 5 0 6 0;
#X connect 5 0 22 2;
#X connect 6 0 7 1;
#X connect 7 0 3 0;
#X connect 7 1 4 0;
#X connect 11 0 12 1;
#X connect 11 1 7 2;
#X connect 11 2 10 0;
#X connect 11 3 8 0;
#X connect 11 4 9 0;
#X connect 12 0 22 3;
#X connect 14 0 13 0;
#X connect 15 0 12 0;
#X connect 16 0 17 0;
#X connect 17 0 18 0;
#X connect 18 0 11 1;
#X connect 19 0 22 0;
#X connect 19 1 22 1;
#X connect 19 2 7 3;
#X connect 19 3 11 1;
#X connect 22 0 7 0;
#X connect 22 1 3 1;
#X connect 22 1 4 1;
#X connect 22 2 20 0;
#X connect 22 3 21 0;
#X connect 22 4 11 0;
