#N canvas 999 228 873 718 10;
#X obj 29 -20 inlet;
#X obj 216 -20 inlet pitch;
#X obj 75 640 outlet~ left;
#X obj 237 640 outlet~ right;
#X obj 430 640 outlet~ progress;
#X obj 580 640 outlet done;
#X obj 29 295 zexy/demultiplex;
#N canvas 775 320 931 714 voice 0;
#X obj 107 411 *~ 0;
#X obj 106 504 tabread4~;
#X obj 216 504 tabread4~;
#X obj 105 577 *~;
#X obj 217 577 *~;
#X obj 107 449 +~ 0;
#N canvas 326 193 914 687 player 0;
#X obj 91 29 inlet bang;
#X obj 253 38 inlet float;
#X obj 388 34 inlet pitch;
#X obj 87 655 outlet~ phase;
#X msg 172 265 0;
#X obj 80 318 tof/phasorshot~;
#X msg 310 229 1;
#X msg 267 232 0;
#X msg 528 383 1;
#X msg 358 362 0;
#X obj 350 144 sel 0;
#N canvas 0 50 450 300 start_phase 0;
#X obj 76 249 outlet;
#X obj 244 26 inlet speed;
#X obj 68 28 inlet bang;
#X obj 74 145 < 0;
#X obj 76 115 f 1;
#X connect 1 0 4 1;
#X connect 2 0 4 0;
#X connect 3 0 0 0;
#X connect 4 0 3 0;
#X restore 132 200 pd start_phase;
#X obj 236 380 spigot;
#X obj 283 310 == 0;
#X obj 254 266 t f f;
#X obj 561 38 inlet speed;
#X obj 294 587 line~;
#X msg 295 561 \$1 5;
#X obj 315 662 outlet~ volume;
#X obj 667 661 outlet done;
#X obj 363 600 cyclone/trapezoid~;
#X obj 602 188 samplerate~;
#X obj 631 137 t b f;
#X obj 649 233 /;
#X obj 603 85 sel 0;
#X obj 631 113 abs;
#X obj 654 291 /;
#X obj 665 336 t f f;
#X msg 709 368 1 \$1;
#X obj 716 394 -;
#X obj 640 381 sig~ 0.0015;
#X obj 717 440 sig~ 0.9985;
#X obj 315 631 *~;
#X obj 378 178 t b b b;
#X obj 94 107 t b b b;
#X obj 72 211 f 0;
#X obj 354 336 delay 5;
#X obj 432 243 t b b b;
#X msg 450 289 stop;
#X obj 380 287 t b b;
#X msg 480 387 0;
#X msg 360 560 0;
#X obj 254 414 t b b b;
#X msg 345 416 0;
#X msg 651 267 256 \$1;
#X obj 75 249 f;
#X connect 0 0 34 0;
#X connect 1 0 10 0;
#X connect 2 0 11 1;
#X connect 4 0 5 1;
#X connect 5 0 3 0;
#X connect 5 0 20 0;
#X connect 5 1 12 0;
#X connect 5 2 12 0;
#X connect 6 0 14 0;
#X connect 7 0 14 0;
#X connect 8 0 17 0;
#X connect 9 0 45 0;
#X connect 10 0 39 0;
#X connect 10 1 33 0;
#X connect 11 0 5 1;
#X connect 12 0 42 0;
#X connect 13 0 12 1;
#X connect 14 0 5 2;
#X connect 14 1 13 0;
#X connect 15 0 24 0;
#X connect 15 0 35 0;
#X connect 16 0 32 0;
#X connect 17 0 16 0;
#X connect 20 0 32 1;
#X connect 21 0 23 0;
#X connect 22 0 21 0;
#X connect 22 1 23 1;
#X connect 23 0 44 0;
#X connect 24 1 25 0;
#X connect 25 0 22 0;
#X connect 26 0 27 0;
#X connect 27 0 30 0;
#X connect 27 1 28 0;
#X connect 28 0 29 0;
#X connect 29 0 31 0;
#X connect 30 0 20 1;
#X connect 31 0 20 2;
#X connect 32 0 18 0;
#X connect 33 0 4 0;
#X connect 33 1 6 0;
#X connect 33 2 37 0;
#X connect 34 0 11 0;
#X connect 34 1 7 0;
#X connect 34 2 37 0;
#X connect 35 0 45 0;
#X connect 36 0 9 0;
#X connect 37 0 35 0;
#X connect 37 1 38 0;
#X connect 37 2 8 0;
#X connect 38 0 36 0;
#X connect 39 0 36 0;
#X connect 39 1 40 0;
#X connect 40 0 17 0;
#X connect 41 0 16 0;
#X connect 42 0 19 0;
#X connect 42 1 41 0;
#X connect 42 2 43 0;
#X connect 43 0 45 0;
#X connect 44 0 26 0;
#X connect 45 0 5 0;
#X restore 106 320 pd player;
#X msg 520 388 set \$1;
#X msg 541 410 set \$1;
#X obj 105 629 outlet~ left;
#X obj 218 629 outlet~ right;
#X obj 106 10 inlet;
#X obj 106 43 route bang float;
#X obj 371 629 outlet~ progress;
#X obj 497 629 outlet done;
#X obj 267 9 inlet pitch;
#X obj 267 191 *;
#X obj 499 8 inlet data;
#X text 584 6 freq table-L table-R end start length;
#X obj 499 43 unpack f s s f f f;
#X obj 276 114 t b f;
#X obj 267 150 f 1;
#X obj 390 9 inlet dur;
#X obj 267 214 spigot 1;
#X obj 390 43 route bang;
#X obj 390 95 t b b;
#X msg 417 133 1;
#X obj 447 94 t f b;
#X msg 474 122 0;
#X msg 140 236 1000 \$1;
#X obj 140 257 /;
#X obj 140 285 t f f;
#X obj 267 43 t f b;
#X msg 312 76 1;
#X connect 0 0 5 0;
#X connect 1 0 3 0;
#X connect 2 0 4 0;
#X connect 3 0 9 0;
#X connect 4 0 10 0;
#X connect 5 0 1 0;
#X connect 5 0 2 0;
#X connect 5 0 13 0;
#X connect 6 0 0 0;
#X connect 6 1 3 1;
#X connect 6 1 4 1;
#X connect 6 2 14 0;
#X connect 7 0 1 0;
#X connect 8 0 2 0;
#X connect 11 0 12 0;
#X connect 12 0 6 0;
#X connect 12 1 6 1;
#X connect 15 0 32 0;
#X connect 16 0 23 0;
#X connect 17 0 19 0;
#X connect 19 0 20 0;
#X connect 19 1 7 0;
#X connect 19 2 8 0;
#X connect 19 4 5 1;
#X connect 19 5 0 1;
#X connect 20 0 21 0;
#X connect 20 1 16 1;
#X connect 21 0 16 0;
#X connect 21 0 6 2;
#X connect 22 0 24 0;
#X connect 23 0 6 3;
#X connect 24 0 25 0;
#X connect 24 1 27 0;
#X connect 25 0 21 0;
#X connect 25 1 26 0;
#X connect 26 0 23 1;
#X connect 27 0 29 0;
#X connect 27 1 28 0;
#X connect 28 0 23 1;
#X connect 29 0 30 0;
#X connect 30 0 31 0;
#X connect 31 0 6 2;
#X connect 31 1 6 3;
#X connect 32 0 21 0;
#X connect 32 1 33 0;
#X connect 33 0 23 1;
#X restore 74 383 pd voice;
#X obj 430 580 zexy/multiplex~;
#X obj 580 583 zexy/multiplex;
#X obj 70 58 sel 0;
#X msg 71 247 0;
#X obj 122 228 s \$0voice;
#X obj 122 207 tgl 15 0 empty empty empty 17 7 0 10 -262144 -1 -1 0
1;
#X obj 122 250 r \$0voice;
#X obj 430 553 r \$0voice;
#X obj 661 553 r \$0voice;
#X obj 277 295 zexy/demultiplex;
#X obj 370 259 r \$0voice;
#X obj 504 16 loadbang;
#X obj 504 48 tof/argument 1;
#X msg 504 79 sample \$1;
#X obj 29 162 t a b b b;
#N canvas 424 321 893 581 sample_get_stereo 0;
#N canvas 0 50 450 300 find_freq 0;
#X obj 83 241 outlet;
#N canvas 330 268 450 300 smpToFreq 0;
#X obj 41 35 inlet;
#X obj 135 179 samplerate~;
#X obj 65 346 outlet;
#X obj 41 67 sel 0;
#X msg 46 154 0;
#X obj 126 104 t b f;
#X obj 132 281 /;
#X connect 0 0 3 0;
#X connect 1 0 6 0;
#X connect 3 0 4 0;
#X connect 3 1 5 0;
#X connect 4 0 2 0;
#X connect 5 0 1 0;
#X connect 5 1 6 1;
#X connect 6 0 2 0;
#X restore 249 100 pd smpToFreq;
#X obj 120 96 samplerate~;
#X obj 87 67 t f b;
#X obj 80 169 *;
#X obj 78 119 /;
#X obj 269 12 inlet length;
#X obj 72 18 inlet samples;
#X connect 1 0 4 1;
#X connect 2 0 5 1;
#X connect 3 0 5 0;
#X connect 3 1 2 0;
#X connect 4 0 0 0;
#X connect 5 0 4 0;
#X connect 6 0 1 0;
#X connect 7 0 3 0;
#X restore 129 275 pd find_freq;
#X obj 235 177 -;
#X obj 154 314 zexy/demultiplex;
#X obj 166 211 > 1;
#X obj 129 526 outlet data;
#X text 308 555 freq table-L table-R end start length;
#X obj 129 485 pack f s s f f f;
#X msg 154 379 symbol 0-\$1;
#X msg 314 380 symbol 1-\$1;
#X msg 236 379 symbol 0-\$1;
#X obj 204 4 inlet sample;
#X obj 129 4 inlet get;
#X obj 391 4 inlet bounds;
#X obj 391 42 route bang;
#X msg 391 72 0 1;
#X obj 418 161 -;
#X obj 418 190 * -1;
#X obj 235 247 * 1;
#X obj 376 249 * 0;
#X obj 376 297 + 0;
#X obj 391 105 unpack f f;
#X obj 391 130 t f f;
#X obj 394 521 outlet size;
#X obj 129 74 sample_unpack;
#X connect 0 0 6 0;
#X connect 1 0 17 0;
#X connect 1 0 22 0;
#X connect 1 0 18 0;
#X connect 2 0 7 0;
#X connect 2 0 9 0;
#X connect 2 1 8 0;
#X connect 2 1 7 0;
#X connect 3 0 2 1;
#X connect 6 0 4 0;
#X connect 7 0 6 1;
#X connect 8 0 6 2;
#X connect 9 0 6 2;
#X connect 10 0 23 1;
#X connect 11 0 23 0;
#X connect 12 0 13 0;
#X connect 13 0 14 0;
#X connect 13 1 20 0;
#X connect 14 0 20 0;
#X connect 15 0 16 0;
#X connect 16 0 17 1;
#X connect 17 0 6 5;
#X connect 17 0 0 1;
#X connect 18 0 19 0;
#X connect 19 0 6 4;
#X connect 20 0 21 0;
#X connect 20 1 15 1;
#X connect 21 0 18 1;
#X connect 21 1 15 0;
#X connect 23 0 0 0;
#X connect 23 2 2 0;
#X connect 23 3 3 0;
#X connect 23 4 1 0;
#X connect 23 4 6 3;
#X connect 23 5 1 1;
#X connect 23 5 19 1;
#X restore 277 217 pd sample_get_stereo;
#X obj 355 -20 inlet duration;
#X obj 29 31 route bang float list;
#X obj 111 57 t b a;
#X obj 431 614 /~ 1;
#N canvas 79 319 931 714 voice 0;
#X obj 107 411 *~ 0;
#X obj 106 504 tabread4~;
#X obj 216 504 tabread4~;
#X obj 105 577 *~;
#X obj 217 577 *~;
#X obj 107 449 +~ 0;
#N canvas 326 193 914 687 player 0;
#X obj 91 29 inlet bang;
#X obj 253 38 inlet float;
#X obj 388 34 inlet pitch;
#X obj 87 655 outlet~ phase;
#X msg 172 265 0;
#X obj 80 318 tof/phasorshot~;
#X msg 310 229 1;
#X msg 267 232 0;
#X msg 528 383 1;
#X msg 358 362 0;
#X obj 350 144 sel 0;
#N canvas 0 50 450 300 start_phase 0;
#X obj 76 249 outlet;
#X obj 244 26 inlet speed;
#X obj 68 28 inlet bang;
#X obj 74 145 < 0;
#X obj 76 115 f 1;
#X connect 1 0 4 1;
#X connect 2 0 4 0;
#X connect 3 0 0 0;
#X connect 4 0 3 0;
#X restore 132 200 pd start_phase;
#X obj 236 380 spigot;
#X obj 283 310 == 0;
#X obj 254 266 t f f;
#X obj 561 38 inlet speed;
#X obj 294 587 line~;
#X msg 295 561 \$1 5;
#X obj 315 662 outlet~ volume;
#X obj 667 661 outlet done;
#X obj 363 600 cyclone/trapezoid~;
#X obj 602 188 samplerate~;
#X obj 631 137 t b f;
#X obj 649 233 /;
#X obj 603 85 sel 0;
#X obj 631 113 abs;
#X obj 654 291 /;
#X obj 665 336 t f f;
#X msg 709 368 1 \$1;
#X obj 716 394 -;
#X obj 640 381 sig~ 0.0015;
#X obj 717 440 sig~ 0.9985;
#X obj 315 631 *~;
#X obj 378 178 t b b b;
#X obj 94 107 t b b b;
#X obj 72 211 f 0;
#X obj 354 336 delay 5;
#X obj 432 243 t b b b;
#X msg 450 289 stop;
#X obj 380 287 t b b;
#X msg 480 387 0;
#X msg 360 560 0;
#X obj 254 414 t b b b;
#X msg 345 416 0;
#X msg 651 267 256 \$1;
#X obj 75 249 f;
#X connect 0 0 34 0;
#X connect 1 0 10 0;
#X connect 2 0 11 1;
#X connect 4 0 5 1;
#X connect 5 0 3 0;
#X connect 5 0 20 0;
#X connect 5 1 12 0;
#X connect 5 2 12 0;
#X connect 6 0 14 0;
#X connect 7 0 14 0;
#X connect 8 0 17 0;
#X connect 9 0 45 0;
#X connect 10 0 39 0;
#X connect 10 1 33 0;
#X connect 11 0 5 1;
#X connect 12 0 42 0;
#X connect 13 0 12 1;
#X connect 14 0 5 2;
#X connect 14 1 13 0;
#X connect 15 0 24 0;
#X connect 15 0 35 0;
#X connect 16 0 32 0;
#X connect 17 0 16 0;
#X connect 20 0 32 1;
#X connect 21 0 23 0;
#X connect 22 0 21 0;
#X connect 22 1 23 1;
#X connect 23 0 44 0;
#X connect 24 1 25 0;
#X connect 25 0 22 0;
#X connect 26 0 27 0;
#X connect 27 0 30 0;
#X connect 27 1 28 0;
#X connect 28 0 29 0;
#X connect 29 0 31 0;
#X connect 30 0 20 1;
#X connect 31 0 20 2;
#X connect 32 0 18 0;
#X connect 33 0 4 0;
#X connect 33 1 6 0;
#X connect 33 2 37 0;
#X connect 34 0 11 0;
#X connect 34 1 7 0;
#X connect 34 2 37 0;
#X connect 35 0 45 0;
#X connect 36 0 9 0;
#X connect 37 0 35 0;
#X connect 37 1 38 0;
#X connect 37 2 8 0;
#X connect 38 0 36 0;
#X connect 39 0 36 0;
#X connect 39 1 40 0;
#X connect 40 0 17 0;
#X connect 41 0 16 0;
#X connect 42 0 19 0;
#X connect 42 1 41 0;
#X connect 42 2 43 0;
#X connect 43 0 45 0;
#X connect 44 0 26 0;
#X connect 45 0 5 0;
#X restore 106 320 pd player;
#X msg 520 388 set \$1;
#X msg 541 410 set \$1;
#X obj 105 629 outlet~ left;
#X obj 218 629 outlet~ right;
#X obj 106 10 inlet;
#X obj 106 43 route bang float;
#X obj 371 629 outlet~ progress;
#X obj 497 629 outlet done;
#X obj 267 9 inlet pitch;
#X obj 267 191 *;
#X obj 499 8 inlet data;
#X text 584 6 freq table-L table-R end start length;
#X obj 499 43 unpack f s s f f f;
#X obj 276 114 t b f;
#X obj 267 150 f 1;
#X obj 390 9 inlet dur;
#X obj 267 214 spigot 1;
#X obj 390 43 route bang;
#X obj 390 95 t b b;
#X msg 417 133 1;
#X obj 447 94 t f b;
#X msg 474 122 0;
#X msg 140 236 1000 \$1;
#X obj 140 257 /;
#X obj 140 285 t f f;
#X obj 267 43 t f b;
#X msg 312 76 1;
#X connect 0 0 5 0;
#X connect 1 0 3 0;
#X connect 2 0 4 0;
#X connect 3 0 9 0;
#X connect 4 0 10 0;
#X connect 5 0 1 0;
#X connect 5 0 2 0;
#X connect 5 0 13 0;
#X connect 6 0 0 0;
#X connect 6 1 3 1;
#X connect 6 1 4 1;
#X connect 6 2 14 0;
#X connect 7 0 1 0;
#X connect 8 0 2 0;
#X connect 11 0 12 0;
#X connect 12 0 6 0;
#X connect 12 1 6 1;
#X connect 15 0 32 0;
#X connect 16 0 23 0;
#X connect 17 0 19 0;
#X connect 19 0 20 0;
#X connect 19 1 7 0;
#X connect 19 2 8 0;
#X connect 19 4 5 1;
#X connect 19 5 0 1;
#X connect 20 0 21 0;
#X connect 20 1 16 1;
#X connect 21 0 16 0;
#X connect 21 0 6 2;
#X connect 22 0 24 0;
#X connect 23 0 6 3;
#X connect 24 0 25 0;
#X connect 24 1 27 0;
#X connect 25 0 21 0;
#X connect 25 1 26 0;
#X connect 26 0 23 1;
#X connect 27 0 29 0;
#X connect 27 1 28 0;
#X connect 28 0 23 1;
#X connect 29 0 30 0;
#X connect 30 0 31 0;
#X connect 31 0 6 2;
#X connect 31 1 6 3;
#X connect 32 0 21 0;
#X connect 32 1 33 0;
#X connect 33 0 23 1;
#X restore 325 383 pd voice;
#X obj 29 136 t a b;
#X connect 0 0 25 0;
#X connect 1 0 28 1;
#X connect 1 0 7 1;
#X connect 6 0 7 0;
#X connect 6 1 28 0;
#X connect 7 0 2 0;
#X connect 7 1 3 0;
#X connect 7 2 8 0;
#X connect 7 3 9 0;
#X connect 8 0 27 0;
#X connect 9 0 5 0;
#X connect 10 0 11 0;
#X connect 10 1 29 0;
#X connect 11 0 6 0;
#X connect 13 0 12 0;
#X connect 14 0 6 1;
#X connect 15 0 8 0;
#X connect 16 0 9 2;
#X connect 17 0 7 3;
#X connect 17 1 28 3;
#X connect 18 0 17 1;
#X connect 19 0 20 0;
#X connect 20 0 21 0;
#X connect 21 0 23 1;
#X connect 22 0 6 0;
#X connect 22 1 23 0;
#X connect 22 2 13 0;
#X connect 22 3 11 0;
#X connect 23 0 17 0;
#X connect 23 1 27 1;
#X connect 24 0 28 2;
#X connect 24 0 7 2;
#X connect 25 0 29 0;
#X connect 25 1 10 0;
#X connect 25 2 26 0;
#X connect 25 3 23 1;
#X connect 26 0 22 0;
#X connect 26 1 23 2;
#X connect 27 0 4 0;
#X connect 28 0 2 0;
#X connect 28 1 3 0;
#X connect 28 2 8 1;
#X connect 28 3 9 1;
#X connect 29 0 22 0;
#X connect 29 1 23 2;
