#N canvas 722 208 956 475 10;
#X obj 44 32 inlet;
#X obj 44 213 iemlib/iem_send;
#X obj 44 103 t b a;
#X obj 45 242 r \$0r;
#X obj 44 146 symbol \$0r;
#X msg 44 173 return \$1;
#X obj 131 146 cyclone/prepend set;
#X obj 45 431 outlet rate;
#X obj 315 431 outlet channels;
#X obj 122 431 outlet file;
#X obj 617 431 outlet size;
#X obj 429 431 outlet end;
#X obj 519 431 outlet start;
#X obj 44 64 route sample bang;
#X obj 45 285 unpack f s s f f f f;
#X obj 205 431 outlet basename;
#X obj 180 32 inlet;
#X obj 180 63 route sample;
#X connect 0 0 13 0;
#X connect 2 0 4 0;
#X connect 2 1 6 0;
#X connect 3 0 14 0;
#X connect 4 0 5 0;
#X connect 5 0 1 0;
#X connect 6 0 1 1;
#X connect 13 0 2 0;
#X connect 13 1 4 0;
#X connect 14 0 7 0;
#X connect 14 1 9 0;
#X connect 14 2 15 0;
#X connect 14 3 8 0;
#X connect 14 4 11 0;
#X connect 14 5 12 0;
#X connect 14 6 10 0;
#X connect 16 0 17 0;
#X connect 17 0 6 0;
