#N canvas 650 131 1026 720 10;
#X obj 66 31 inlet~;
#X obj 223 31 inlet~;
#X obj 305 31 inlet off/on;
#X obj 404 51 loadbang;
#X obj 404 176 symbol \$1;
#X msg 404 203 sample \$1;
#X obj 257 353 spigot;
#X obj 290 324 > 1;
#X msg 90 414 set 0-\$1;
#X msg 249 414 set 1-\$1;
#X obj 168 644 tof/sample_packel;
#X msg 168 617 start 0 \, end \$1;
#X obj 305 59 route sample;
#X obj 67 450 tabwrite~;
#X obj 224 450 tabwrite~;
#X msg 82 164 stop;
#X obj 168 485 timer;
#X obj 168 591 min;
#X obj 82 126 t b b;
#X obj 82 97 sel 0;
#X obj 129 126 t b b b;
#N canvas 1 79 450 300 msToSmp 0;
#X obj 89 134 samplerate~;
#X obj 89 160 / 1000;
#X obj 62 204 * 44.1;
#X obj 62 93 t f b;
#X obj 62 37 inlet;
#X obj 62 256 outlet;
#X connect 0 0 1 0;
#X connect 1 0 2 1;
#X connect 2 0 5 0;
#X connect 3 0 2 0;
#X connect 3 1 0 0;
#X connect 4 0 3 0;
#X restore 168 515 pd msToSmp;
#X obj 404 232 tof/sample_unpack;
#X connect 0 0 13 0;
#X connect 1 0 14 0;
#X connect 2 0 12 0;
#X connect 3 0 4 0;
#X connect 4 0 5 0;
#X connect 5 0 10 1;
#X connect 5 0 22 0;
#X connect 6 0 14 0;
#X connect 7 0 6 1;
#X connect 8 0 13 0;
#X connect 9 0 14 0;
#X connect 11 0 10 0;
#X connect 12 0 4 0;
#X connect 12 1 19 0;
#X connect 15 0 6 0;
#X connect 15 0 13 0;
#X connect 16 0 21 0;
#X connect 17 0 11 0;
#X connect 18 0 15 0;
#X connect 18 1 16 1;
#X connect 19 0 18 0;
#X connect 19 1 20 0;
#X connect 20 0 13 0;
#X connect 20 0 6 0;
#X connect 20 1 4 0;
#X connect 20 2 16 0;
#X connect 21 0 17 0;
#X connect 22 2 8 0;
#X connect 22 2 9 0;
#X connect 22 3 7 0;
#X connect 22 6 17 1;
