#N canvas 1 80 412 446 10;
#X floatatom 82 192 5 0 0 0 - - -, f 5;
#X obj 199 241 bng 15 250 50 0 empty empty empty 17 7 0 10 -262144
-1 -1;
#X floatatom 82 368 5 0 0 0 minimum - -, f 5;
#X floatatom 175 368 5 0 0 0 maximum - -, f 5;
#X text 216 239 reset;
#X text 61 170 number stream;
#X obj 2 3 cnv 15 400 100 empty empty empty 20 12 0 14 -249661 -66577
0;
#X text 7 61 author: mrtoftrash@gmail.com;
#X text 7 7 description: outputs the minimum and maximum float of a
stream of numbers.;
#X text 7 41 tags: stream;
#X text 7 81 version: 2009-05-07 (initial release);
#X text 210 191 set minimum and maximum;
#X text 4 120 Argument 2: maximum value at start (defaults to none)
;
#X text 4 105 Argument 1: minimum value at start (defaults to none)
;
#X msg 168 190 43 90;
#X obj 9 141 tof/streamMinMax 45 100;
#X obj 82 307 tof/streamMinMax;
#N canvas 257 141 494 344 META 0;
#X text 12 155 HELP_PATCH_AUTHORS "pd meta" information added by Jonathan
Wilkes for Pd version 0.42.;
#X text 12 135 AUTHOR Thomas Ouellet Fredericks;
#X text 12 5 KEYWORDS control conversion;
#X text 12 25 DESCRIPTION output the minimum and maximum float of a
stream of numbers;
#X text 12 75 INLET_0 float list bang;
#X text 12 95 OUTLET_0 float;
#X text 12 115 OUTLET_1 float;
#X text 12 55 LICENSE S.I. BSD;
#X restore 352 394 pd META;
#X connect 0 0 16 0;
#X connect 1 0 16 0;
#X connect 14 0 16 0;
#X connect 16 0 2 0;
#X connect 16 1 3 0;
