#N canvas 1 79 571 322 10;
#X msg 19 118 test;
#X msg 152 119 1234;
#X obj 19 199 tof/to_ascii_code 13;
#X msg 62 118 list abcdef;
#X obj 19 277 print codes;
#X text 158 198 Optionnal argument: append ASCII code (in this case
13 \, a carriage return);
#N canvas 288 134 494 344 META 0;
#X text 12 125 HELP_PATCH_AUTHORS "pd meta" information added by Jonathan
Wilkes for Pd version 0.42.;
#X text 12 105 AUTHOR Thomas Ouellet Fredericks;
#X text 12 25 DESCRIPTION convert PD messages into ASCII codes;
#X text 12 5 KEYWORDS control conversion;
#X text 12 65 INLET_0 anything;
#X text 12 85 OUTLET_0 list;
#X text 12 45 LICENSE S.I. BSD;
#X restore 511 285 pd META;
#X obj 2 2 cnv 15 400 100 empty empty empty 20 12 0 14 -249661 -66577
0;
#X text 10 48 author: mrtoftrash@gmail.com;
#X text 10 6 description: Convert PD messages into ASCII codes;
#X text 9 26 tags: conversion text symbols;
#X text 8 69 version: 2010-05-12 (initial release \, 0.1);
#X connect 0 0 2 0;
#X connect 1 0 2 0;
#X connect 2 0 4 0;
#X connect 3 0 2 0;
