#N canvas 104 96 901 519 10;
#X obj 406 99 tof/animate;
#X obj 29 69 tof/argument;
#X obj 29 94 tof/arguments;
#X obj 585 54 tof/breakpoints~;
#X obj 583 219 tof/breakpoints;
#X obj 222 127 tof/common~;
#X obj 222 151 tof/crossfade~;
#X obj 583 449 tof/folderpanel;
#X obj 29 245 tof/from_ascii_code;
#X obj 406 302 tof/gemwin+;
#X obj 29 121 tof/getdollarzero;
#X obj 29 295 tof/increment;
#X obj 29 320 tof/iterate;
#X obj 29 411 tof/list_accum;
#X obj 29 436 tof/list_unfold;
#X obj 406 371 tof/listUnfold;
#X obj 581 415 tof/menubutton 124 25 empty empty 0 grey90 black grey95
black -1;
#X obj 29 147 tof/onlyone;
#X obj 222 245 tof/open_help;
#X obj 406 394 tof/openHelp;
#X obj 406 73 tof/OSCToParam;
#X obj 222 69 tof/path;
#X obj 222 175 tof/phasorshot~;
#X obj 406 325 tof/pix_film+;
#X obj 584 473 tof/pmenu;
#X obj 406 150 tof/sample_granule~;
#X obj 406 125 tof/sample;
#X obj 406 175 tof/sample_packel;
#X obj 406 200 tof/sample_play~;
#X obj 406 226 tof/sample_record~;
#X obj 406 251 tof/sample_shifft~;
#X obj 406 276 tof/sample_unpack;
#X obj 29 270 tof/to_ascii_code;
#X obj 29 344 tof/param /name default;
#X obj 29 221 tof/streamMinMax;
#X text 580 34 breakpoints~;
#X text 581 200 breakpoints;
#X text 580 399 menubutton;
#X text 579 367 imagebang;
#X text 580 11 GUI objects;
#X text 403 45 Abstractions;
#X text 30 389 lists;
#X text 25 44 Initialization;
#X text 225 224 help;
#X text 221 48 path converter;
#X text 221 103 signal;
#X text 142 12 Tof objects ordered by function;
#X obj 583 383 tof/imagebang - -;
#X text 405 352 Depricated;
#X text 25 199 message;
#X text 27 472 Tof is created by Thomas Ouellet Fredericks in 2009-2010
;
#X obj 773 495 tof-meta;
#X text 28 491 This is version 0.2.3 \, released 20120-09-12 by fjkraan@xs4all.nl
, f 62;
